<?xml version="1.0" encoding="UTF-8" standalone="no"?><svg xmlns="http://www.w3.org/2000/svg" xmlns:xlink="http://www.w3.org/1999/xlink" contentStyleType="text/css" height="1476px" preserveAspectRatio="none" style="width:2467px;height:1476px;background:#FFFFFF;" version="1.1" viewBox="0 0 2467 1476" width="2467px" zoomAndPan="magnify"><defs/><g><rect fill="#FFFFFF" height="35.6094" style="stroke:#FFFFFF;stroke-width:0.0;" width="731" x="866.5" y="10"/><text fill="#000000" font-family="Verdana" font-size="22" font-weight="bold" lengthAdjust="spacing" textLength="721" x="871.5" y="35.4209">BPMN-диаграмма: Процесс обработки заявки на кредит</text><rect fill="#FFFFFF" height="20.9531" style="stroke:#FFFFFF;stroke-width:1.0;" width="2444" x="10" y="54.3545"/><ellipse cx="118" cy="90.3076" fill="#FFFFFF" rx="10" ry="10" style="stroke:#000000;stroke-width:1.0;"/><rect fill="#FFFFFF" height="33.9688" rx="12.5" ry="12.5" style="stroke:#000000;stroke-width:1.0;" width="204" x="16" y="120.3076"/><text fill="#000000" font-family="Verdana" font-size="12" lengthAdjust="spacing" textLength="184" x="26" y="141.4463">Подать заявку в отделении</text><rect fill="#FFFFFF" height="33.9688" rx="12.5" ry="12.5" style="stroke:#000000;stroke-width:1.0;" width="194" x="21" y="1393.3701"/><text fill="#000000" font-family="Verdana" font-size="12" lengthAdjust="spacing" textLength="174" x="31" y="1414.5088">Получить СМС с решением</text><ellipse cx="118" cy="1458.3389" fill="#FFFFFF" rx="11" ry="11" style="stroke:#000000;stroke-width:1.0;"/><ellipse cx="118" cy="1458.3389" fill="#000000" rx="6" ry="6" style="stroke:#7F7F7F;stroke-width:1.0;"/><line style="stroke:#000000;stroke-width:1.0;" x1="10" x2="10" y1="54.3545" y2="1469.3389"/><rect fill="#FFFFFF" height="33.9688" rx="12.5" ry="12.5" style="stroke:#000000;stroke-width:1.0;" width="135" x="283" y="174.2764"/><text fill="#000000" font-family="Verdana" font-size="12" lengthAdjust="spacing" textLength="115" x="293" y="195.415">Оформить заявку</text><line style="stroke:#000000;stroke-width:1.0;" x1="224" x2="224" y1="54.3545" y2="1469.3389"/><path d="M653.5,228.2451 L653.5,253.3779 L926.5,253.3779 L926.5,238.2451 L916.5,228.2451 L653.5,228.2451 " fill="#FFFFFF" style="stroke:#000000;stroke-width:1.0;"/><path d="M916.5,228.2451 L916.5,238.2451 L926.5,238.2451 L916.5,228.2451 " fill="#FFFFFF" style="stroke:#000000;stroke-width:1.0;"/><text fill="#000000" font-family="Verdana" font-size="13" lengthAdjust="spacing" textLength="252" x="659.5" y="245.312">Заявка ожидает пакетной выгрузки</text><path d="M711.5,273.3779 L711.5,328.7764 L868.5,328.7764 L868.5,283.3779 L858.5,273.3779 L711.5,273.3779 " fill="#FFFFFF" style="stroke:#000000;stroke-width:1.0;"/><path d="M858.5,273.3779 L858.5,283.3779 L868.5,283.3779 L858.5,273.3779 " fill="#FFFFFF" style="stroke:#000000;stroke-width:1.0;"/><text fill="#000000" font-family="Verdana" font-size="13" font-weight="bold" lengthAdjust="spacing" textLength="100" x="717.5" y="290.4448">Узкое место:</text><text fill="#000000" font-family="Verdana" font-size="13" lengthAdjust="spacing" textLength="136" x="717.5" y="305.5776">Пакетная передача</text><text fill="#000000" font-family="Verdana" font-size="13" lengthAdjust="spacing" textLength="81" x="717.5" y="320.7104">заявок в КК</text><rect fill="#FFFFFF" height="33.9688" rx="12.5" ry="12.5" style="stroke:#000000;stroke-width:1.0;" width="138" x="505.5" y="261.5264"/><text fill="#000000" font-family="Verdana" font-size="12" lengthAdjust="spacing" textLength="118" x="515.5" y="282.665">Заявка сохранена</text><rect fill="#FFFFFF" height="33.9688" rx="12.5" ry="12.5" style="stroke:#000000;stroke-width:1.0;" width="181" x="484" y="1231.4639"/><text fill="#000000" font-family="Verdana" font-size="12" lengthAdjust="spacing" textLength="161" x="494" y="1252.6025">Статус заявки обновлен</text><rect fill="#FFFFFF" height="33.9688" rx="12.5" ry="12.5" style="stroke:#000000;stroke-width:1.0;" width="187" x="481" y="1285.4326"/><text fill="#000000" font-family="Verdana" font-size="12" lengthAdjust="spacing" textLength="167" x="491" y="1306.5713">Информировать клиента</text><line style="stroke:#000000;stroke-width:1.0;" x1="475" x2="475" y1="54.3545" y2="1469.3389"/><rect fill="#FAEBD7" height="1414.9844" style="stroke:#FAEBD7;stroke-width:1.0;" width="386" x="941.5" y="54.3545"/><rect fill="#FFFFFF" height="33.9688" rx="12.5" ry="12.5" style="stroke:#000000;stroke-width:1.0;" width="138" x="986" y="358.7764"/><text fill="#EE82EE" font-family="Verdana" font-size="12" lengthAdjust="spacing" textLength="35" x="996" y="379.915">Event</text><text fill="#000000" font-family="Verdana" font-size="12" lengthAdjust="spacing" textLength="4" x="1031" y="379.915">:</text><text fill="#000000" font-family="Verdana" font-size="12" font-weight="bold" lengthAdjust="spacing" textLength="79" x="1035" y="379.915">Раз в сутки</text><rect fill="#FFFFFF" height="33.9688" rx="12.5" ry="12.5" style="stroke:#000000;stroke-width:1.0;" width="170" x="970" y="412.7451"/><text fill="#000000" font-family="Verdana" font-size="12" lengthAdjust="spacing" textLength="150" x="980" y="433.8838">Пакет заявок передан</text><path d="M1165.5,1048.1279 L1165.5,1071.8271 L1145.5,1075.8271 L1165.5,1079.8271 L1165.5,1103.5264 A0,0 0 0 0 1165.5,1103.5264 L1322.5,1103.5264 A0,0 0 0 0 1322.5,1103.5264 L1322.5,1058.1279 L1312.5,1048.1279 L1165.5,1048.1279 A0,0 0 0 0 1165.5,1048.1279 " fill="#FFFFFF" style="stroke:#000000;stroke-width:1.0;"/><path d="M1312.5,1048.1279 L1312.5,1058.1279 L1322.5,1058.1279 L1312.5,1048.1279 " fill="#FFFFFF" style="stroke:#000000;stroke-width:1.0;"/><text fill="#000000" font-family="Verdana" font-size="13" font-weight="bold" lengthAdjust="spacing" textLength="100" x="1171.5" y="1065.1948">Узкое место:</text><text fill="#000000" font-family="Verdana" font-size="13" lengthAdjust="spacing" textLength="136" x="1171.5" y="1080.3276">Пакетная передача</text><text fill="#000000" font-family="Verdana" font-size="13" lengthAdjust="spacing" textLength="106" x="1171.5" y="1095.4604">статусов в АБС</text><rect fill="#FFFFFF" height="33.9688" rx="12.5" ry="12.5" style="stroke:#000000;stroke-width:1.0;" width="138" x="986" y="1123.5264"/><text fill="#EE82EE" font-family="Verdana" font-size="12" lengthAdjust="spacing" textLength="35" x="996" y="1144.665">Event</text><text fill="#000000" font-family="Verdana" font-size="12" lengthAdjust="spacing" textLength="4" x="1031" y="1144.665">:</text><text fill="#000000" font-family="Verdana" font-size="12" font-weight="bold" lengthAdjust="spacing" textLength="79" x="1035" y="1144.665">Раз в сутки</text><rect fill="#FFFFFF" height="33.9688" rx="12.5" ry="12.5" style="stroke:#000000;stroke-width:1.0;" width="215" x="947.5" y="1177.4951"/><text fill="#000000" font-family="Verdana" font-size="12" lengthAdjust="spacing" textLength="195" x="957.5" y="1198.6338">Статус заявки передан в АБС</text><line style="stroke:#000000;stroke-width:1.0;" x1="941.5" x2="941.5" y1="54.3545" y2="1469.3389"/><rect fill="#FFFFFF" height="33.9688" rx="12.5" ry="12.5" style="stroke:#000000;stroke-width:1.0;" width="194" x="1340.5" y="466.7139"/><text fill="#000000" font-family="Verdana" font-size="12" lengthAdjust="spacing" textLength="174" x="1350.5" y="487.8525">Заявка зарегистрирована</text><rect fill="#FFFFFF" height="33.9688" rx="12.5" ry="12.5" style="stroke:#000000;stroke-width:1.0;" width="174" x="1350.5" y="590.499"/><text fill="#000000" font-family="Verdana" font-size="12" lengthAdjust="spacing" textLength="154" x="1360.5" y="611.6377">Инициировать скоринг</text><rect fill="#FFFFFF" height="33.9688" rx="12.5" ry="12.5" style="stroke:#000000;stroke-width:1.0;" width="130" x="1372.5" y="832.2217"/><text fill="#000000" font-family="Verdana" font-size="12" lengthAdjust="spacing" textLength="110" x="1382.5" y="853.3604">Скоринг получен</text><rect fill="#FFFFFF" height="33.9688" rx="12.5" ry="12.5" style="stroke:#000000;stroke-width:1.0;" width="181" x="1347" y="1058.8428"/><text fill="#000000" font-family="Verdana" font-size="12" lengthAdjust="spacing" textLength="161" x="1357" y="1079.9814">Статус заявки обновлен</text><line style="stroke:#000000;stroke-width:1.0;" x1="1327.5" x2="1327.5" y1="54.3545" y2="1469.3389"/><rect fill="#FFFFFF" height="33.9688" rx="12.5" ry="12.5" style="stroke:#000000;stroke-width:1.0;" width="157" x="1629" y="520.6826"/><text fill="#000000" font-family="Verdana" font-size="12" lengthAdjust="spacing" textLength="137" x="1639" y="541.8213">Открыть заявку в КК</text><rect fill="#FFFFFF" height="33.9688" rx="12.5" ry="12.5" style="stroke:#000000;stroke-width:1.0;" width="207" x="1604" y="886.1904"/><text fill="#000000" font-family="Verdana" font-size="12" lengthAdjust="spacing" textLength="187" x="1614" y="907.3291">Принять решение по заявке</text><polygon fill="#FFFFFF" points="1678,940.1592,1737,940.1592,1749,952.1592,1737,964.1592,1678,964.1592,1666,952.1592,1678,940.1592" style="stroke:#000000;stroke-width:1.0;"/><text fill="#000000" font-family="Verdana" font-size="11" lengthAdjust="spacing" textLength="59" x="1678" y="955.9673">Решение?</text><text fill="#000000" font-family="Verdana" font-size="11" lengthAdjust="spacing" textLength="59" x="1607" y="949.5649">Одобрить</text><text fill="#000000" font-family="Verdana" font-size="11" lengthAdjust="spacing" textLength="57" x="1749" y="949.5649">Отказать</text><rect fill="#FFFFFF" height="33.9688" rx="12.5" ry="12.5" style="stroke:#000000;stroke-width:1.0;" width="134" x="1562" y="974.1592"/><text fill="#000000" font-family="Verdana" font-size="12" lengthAdjust="spacing" textLength="114" x="1572" y="995.2979">Заявка одобрена</text><rect fill="#FFFFFF" height="33.9688" rx="12.5" ry="12.5" style="stroke:#000000;stroke-width:1.0;" width="140" x="1716" y="974.1592"/><text fill="#000000" font-family="Verdana" font-size="12" lengthAdjust="spacing" textLength="120" x="1726" y="995.2979">Заявка отклонена</text><polygon fill="#FFFFFF" points="1707.5,1014.1279,1719.5,1026.1279,1707.5,1038.1279,1695.5,1026.1279,1707.5,1014.1279" style="stroke:#000000;stroke-width:1.0;"/><line style="stroke:#000000;stroke-width:1.0;" x1="1545.5" x2="1545.5" y1="54.3545" y2="1469.3389"/><path d="M1875.5,564.6514 L1875.5,650.3154 A0,0 0 0 0 1875.5,650.3154 L2094.5,650.3154 A0,0 0 0 0 2094.5,650.3154 L2094.5,611.4834 L2114.5,607.4834 L2094.5,603.4834 L2094.5,574.6514 L2084.5,564.6514 L1875.5,564.6514 A0,0 0 0 0 1875.5,564.6514 " fill="#FFFFFF" style="stroke:#000000;stroke-width:1.0;"/><path d="M2084.5,564.6514 L2084.5,574.6514 L2094.5,574.6514 L2084.5,564.6514 " fill="#FFFFFF" style="stroke:#000000;stroke-width:1.0;"/><text fill="#000000" font-family="Verdana" font-size="13" lengthAdjust="spacing" textLength="149" x="1881.5" y="581.7183">Данные для скоринга</text><text fill="#000000" font-family="Verdana" font-size="13" lengthAdjust="spacing" textLength="90" x="1881.5" y="596.8511">(из АБС и КК)</text><text fill="#000000" font-family="Verdana" font-size="13" lengthAdjust="spacing" textLength="177" x="1881.5" y="611.9839">уже загружены в систему</text><text fill="#000000" font-family="Verdana" font-size="13" lengthAdjust="spacing" textLength="126" x="1881.5" y="627.1167">скоринга в рамках</text><text fill="#000000" font-family="Verdana" font-size="13" lengthAdjust="spacing" textLength="198" x="1881.5" y="642.2495">другого пакетного процесса</text><rect fill="#FFFFFF" height="33.9688" rx="12.5" ry="12.5" style="stroke:#000000;stroke-width:1.0;" width="227" x="2088" y="670.3154"/><text fill="#000000" font-family="Verdana" font-size="12" lengthAdjust="spacing" textLength="207" x="2098" y="691.4541">Запросить данные из БКИ (API)</text><rect fill="#FFFFFF" height="33.9688" rx="12.5" ry="12.5" style="stroke:#000000;stroke-width:1.0;" width="221" x="2091" y="724.2842"/><text fill="#000000" font-family="Verdana" font-size="12" lengthAdjust="spacing" textLength="201" x="2101" y="745.4229">Рассчитать скоринговый балл</text><rect fill="#FFFFFF" height="33.9688" rx="12.5" ry="12.5" style="stroke:#000000;stroke-width:1.0;" width="192" x="2105.5" y="778.2529"/><text fill="#000000" font-family="Verdana" font-size="12" lengthAdjust="spacing" textLength="172" x="2115.5" y="799.3916">Передать результат в КК</text><line style="stroke:#000000;stroke-width:1.0;" x1="1870.5" x2="1870.5" y1="54.3545" y2="1469.3389"/><rect fill="#FFFFFF" height="33.9688" rx="12.5" ry="12.5" style="stroke:#000000;stroke-width:1.0;" width="123" x="2325" y="1339.4014"/><text fill="#000000" font-family="Verdana" font-size="12" lengthAdjust="spacing" textLength="103" x="2335" y="1360.54">Отправить СМС</text><line style="stroke:#000000;stroke-width:1.0;" x1="2319" x2="2319" y1="54.3545" y2="1469.3389"/><line style="stroke:#000000;stroke-width:1.0;" x1="2452" x2="2452" y1="54.3545" y2="1469.3389"/><line style="stroke:#000000;stroke-width:1.0;" x1="118" x2="118" y1="100.3076" y2="120.3076"/><polygon fill="#000000" points="114,110.3076,118,120.3076,122,110.3076,118,114.3076" style="stroke:#000000;stroke-width:1.0;"/><line style="stroke:#000000;stroke-width:1.0;" x1="118" x2="118" y1="1427.3389" y2="1447.3389"/><polygon fill="#000000" points="114,1437.3389,118,1447.3389,122,1437.3389,118,1441.3389" style="stroke:#000000;stroke-width:1.0;"/><line style="stroke:#000000;stroke-width:1.0;" x1="574.5" x2="574.5" y1="1265.4326" y2="1285.4326"/><polygon fill="#000000" points="570.5,1275.4326,574.5,1285.4326,578.5,1275.4326,574.5,1279.4326" style="stroke:#000000;stroke-width:1.0;"/><line style="stroke:#000000;stroke-width:1.0;" x1="1055" x2="1055" y1="392.7451" y2="412.7451"/><polygon fill="#000000" points="1051,402.7451,1055,412.7451,1059,402.7451,1055,406.7451" style="stroke:#000000;stroke-width:1.0;"/><line style="stroke:#000000;stroke-width:1.0;" x1="1055" x2="1055" y1="1157.4951" y2="1177.4951"/><polygon fill="#000000" points="1051,1167.4951,1055,1177.4951,1059,1167.4951,1055,1171.4951" style="stroke:#000000;stroke-width:1.0;"/><line style="stroke:#000000;stroke-width:1.0;" x1="1666" x2="1629" y1="952.1592" y2="952.1592"/><line style="stroke:#000000;stroke-width:1.0;" x1="1629" x2="1629" y1="952.1592" y2="974.1592"/><polygon fill="#000000" points="1625,964.1592,1629,974.1592,1633,964.1592,1629,968.1592" style="stroke:#000000;stroke-width:1.0;"/><line style="stroke:#000000;stroke-width:1.0;" x1="1749" x2="1786" y1="952.1592" y2="952.1592"/><line style="stroke:#000000;stroke-width:1.0;" x1="1786" x2="1786" y1="952.1592" y2="974.1592"/><polygon fill="#000000" points="1782,964.1592,1786,974.1592,1790,964.1592,1786,968.1592" style="stroke:#000000;stroke-width:1.0;"/><line style="stroke:#000000;stroke-width:1.0;" x1="1629" x2="1629" y1="1008.1279" y2="1026.1279"/><line style="stroke:#000000;stroke-width:1.0;" x1="1629" x2="1695.5" y1="1026.1279" y2="1026.1279"/><polygon fill="#000000" points="1685.5,1022.1279,1695.5,1026.1279,1685.5,1030.1279,1689.5,1026.1279" style="stroke:#000000;stroke-width:1.0;"/><line style="stroke:#000000;stroke-width:1.0;" x1="1786" x2="1786" y1="1008.1279" y2="1026.1279"/><line style="stroke:#000000;stroke-width:1.0;" x1="1786" x2="1719.5" y1="1026.1279" y2="1026.1279"/><polygon fill="#000000" points="1729.5,1022.1279,1719.5,1026.1279,1729.5,1030.1279,1725.5,1026.1279" style="stroke:#000000;stroke-width:1.0;"/><line style="stroke:#000000;stroke-width:1.0;" x1="1707.5" x2="1707.5" y1="920.1592" y2="940.1592"/><polygon fill="#000000" points="1703.5,930.1592,1707.5,940.1592,1711.5,930.1592,1707.5,934.1592" style="stroke:#000000;stroke-width:1.0;"/><line style="stroke:#000000;stroke-width:1.0;" x1="2201.5" x2="2201.5" y1="704.2842" y2="724.2842"/><polygon fill="#000000" points="2197.5,714.2842,2201.5,724.2842,2205.5,714.2842,2201.5,718.2842" style="stroke:#000000;stroke-width:1.0;"/><line style="stroke:#000000;stroke-width:1.0;" x1="2201.5" x2="2201.5" y1="758.2529" y2="778.2529"/><polygon fill="#000000" points="2197.5,768.2529,2201.5,778.2529,2205.5,768.2529,2201.5,772.2529" style="stroke:#000000;stroke-width:1.0;"/><line style="stroke:#000000;stroke-width:1.0;" x1="118" x2="118" y1="154.2764" y2="159.2764"/><line style="stroke:#000000;stroke-width:1.0;" x1="118" x2="350.5" y1="159.2764" y2="159.2764"/><line style="stroke:#000000;stroke-width:1.0;" x1="350.5" x2="350.5" y1="159.2764" y2="174.2764"/><polygon fill="#000000" points="346.5,164.2764,350.5,174.2764,354.5,164.2764,350.5,168.2764" style="stroke:#000000;stroke-width:1.0;"/><line style="stroke:#000000;stroke-width:1.0;" x1="350.5" x2="350.5" y1="208.2451" y2="222.3857"/><line style="stroke:#000000;stroke-width:1.0;" x1="350.5" x2="574.5" y1="222.3857" y2="222.3857"/><line style="stroke:#000000;stroke-width:1.0;" x1="574.5" x2="574.5" y1="222.3857" y2="261.5264"/><polygon fill="#000000" points="570.5,251.5264,574.5,261.5264,578.5,251.5264,574.5,255.5264" style="stroke:#000000;stroke-width:1.0;"/><line style="stroke:#000000;stroke-width:1.0;" x1="574.5" x2="574.5" y1="295.4951" y2="334.6357"/><line style="stroke:#000000;stroke-width:1.0;" x1="574.5" x2="1055" y1="334.6357" y2="334.6357"/><line style="stroke:#000000;stroke-width:1.0;" x1="1055" x2="1055" y1="334.6357" y2="358.7764"/><polygon fill="#000000" points="1051,348.7764,1055,358.7764,1059,348.7764,1055,352.7764" style="stroke:#000000;stroke-width:1.0;"/><line style="stroke:#000000;stroke-width:1.0;" x1="1055" x2="1055" y1="446.7139" y2="451.7139"/><line style="stroke:#000000;stroke-width:1.0;" x1="1055" x2="1437.5" y1="451.7139" y2="451.7139"/><line style="stroke:#000000;stroke-width:1.0;" x1="1437.5" x2="1437.5" y1="451.7139" y2="466.7139"/><polygon fill="#000000" points="1433.5,456.7139,1437.5,466.7139,1441.5,456.7139,1437.5,460.7139" style="stroke:#000000;stroke-width:1.0;"/><line style="stroke:#000000;stroke-width:1.0;" x1="1437.5" x2="1437.5" y1="500.6826" y2="505.6826"/><line style="stroke:#000000;stroke-width:1.0;" x1="1437.5" x2="1707.5" y1="505.6826" y2="505.6826"/><line style="stroke:#000000;stroke-width:1.0;" x1="1707.5" x2="1707.5" y1="505.6826" y2="520.6826"/><polygon fill="#000000" points="1703.5,510.6826,1707.5,520.6826,1711.5,510.6826,1707.5,514.6826" style="stroke:#000000;stroke-width:1.0;"/><line style="stroke:#000000;stroke-width:1.0;" x1="1707.5" x2="1707.5" y1="554.6514" y2="560.0752"/><line style="stroke:#000000;stroke-width:1.0;" x1="1707.5" x2="1437.5" y1="560.0752" y2="560.0752"/><line style="stroke:#000000;stroke-width:1.0;" x1="1437.5" x2="1437.5" y1="560.0752" y2="590.499"/><polygon fill="#000000" points="1433.5,580.499,1437.5,590.499,1441.5,580.499,1437.5,584.499" style="stroke:#000000;stroke-width:1.0;"/><line style="stroke:#000000;stroke-width:1.0;" x1="1437.5" x2="1437.5" y1="624.4678" y2="654.8916"/><line style="stroke:#000000;stroke-width:1.0;" x1="1437.5" x2="2201.5" y1="654.8916" y2="654.8916"/><line style="stroke:#000000;stroke-width:1.0;" x1="2201.5" x2="2201.5" y1="654.8916" y2="670.3154"/><polygon fill="#000000" points="2197.5,660.3154,2201.5,670.3154,2205.5,660.3154,2201.5,664.3154" style="stroke:#000000;stroke-width:1.0;"/><line style="stroke:#000000;stroke-width:1.0;" x1="2201.5" x2="2201.5" y1="812.2217" y2="817.2217"/><line style="stroke:#000000;stroke-width:1.0;" x1="2201.5" x2="1437.5" y1="817.2217" y2="817.2217"/><line style="stroke:#000000;stroke-width:1.0;" x1="1437.5" x2="1437.5" y1="817.2217" y2="832.2217"/><polygon fill="#000000" points="1433.5,822.2217,1437.5,832.2217,1441.5,822.2217,1437.5,826.2217" style="stroke:#000000;stroke-width:1.0;"/><line style="stroke:#000000;stroke-width:1.0;" x1="1437.5" x2="1437.5" y1="866.1904" y2="871.1904"/><line style="stroke:#000000;stroke-width:1.0;" x1="1437.5" x2="1707.5" y1="871.1904" y2="871.1904"/><line style="stroke:#000000;stroke-width:1.0;" x1="1707.5" x2="1707.5" y1="871.1904" y2="886.1904"/><polygon fill="#000000" points="1703.5,876.1904,1707.5,886.1904,1711.5,876.1904,1707.5,880.1904" style="stroke:#000000;stroke-width:1.0;"/><line style="stroke:#000000;stroke-width:1.0;" x1="1707.5" x2="1707.5" y1="1038.1279" y2="1043.1279"/><line style="stroke:#000000;stroke-width:1.0;" x1="1707.5" x2="1437.5" y1="1043.1279" y2="1043.1279"/><line style="stroke:#000000;stroke-width:1.0;" x1="1437.5" x2="1437.5" y1="1043.1279" y2="1058.8428"/><polygon fill="#000000" points="1433.5,1048.8428,1437.5,1058.8428,1441.5,1048.8428,1437.5,1052.8428" style="stroke:#000000;stroke-width:1.0;"/><line style="stroke:#000000;stroke-width:1.0;" x1="1437.5" x2="1437.5" y1="1092.8115" y2="1108.5264"/><line style="stroke:#000000;stroke-width:1.0;" x1="1437.5" x2="1055" y1="1108.5264" y2="1108.5264"/><line style="stroke:#000000;stroke-width:1.0;" x1="1055" x2="1055" y1="1108.5264" y2="1123.5264"/><polygon fill="#000000" points="1051,1113.5264,1055,1123.5264,1059,1113.5264,1055,1117.5264" style="stroke:#000000;stroke-width:1.0;"/><line style="stroke:#000000;stroke-width:1.0;" x1="1055" x2="1055" y1="1211.4639" y2="1216.4639"/><line style="stroke:#000000;stroke-width:1.0;" x1="1055" x2="574.5" y1="1216.4639" y2="1216.4639"/><line style="stroke:#000000;stroke-width:1.0;" x1="574.5" x2="574.5" y1="1216.4639" y2="1231.4639"/><polygon fill="#000000" points="570.5,1221.4639,574.5,1231.4639,578.5,1221.4639,574.5,1225.4639" style="stroke:#000000;stroke-width:1.0;"/><line style="stroke:#000000;stroke-width:1.0;" x1="574.5" x2="574.5" y1="1319.4014" y2="1324.4014"/><line style="stroke:#000000;stroke-width:1.0;" x1="574.5" x2="2386.5" y1="1324.4014" y2="1324.4014"/><line style="stroke:#000000;stroke-width:1.0;" x1="2386.5" x2="2386.5" y1="1324.4014" y2="1339.4014"/><polygon fill="#000000" points="2382.5,1329.4014,2386.5,1339.4014,2390.5,1329.4014,2386.5,1333.4014" style="stroke:#000000;stroke-width:1.0;"/><line style="stroke:#000000;stroke-width:1.0;" x1="2386.5" x2="2386.5" y1="1373.3701" y2="1378.3701"/><line style="stroke:#000000;stroke-width:1.0;" x1="2386.5" x2="118" y1="1378.3701" y2="1378.3701"/><line style="stroke:#000000;stroke-width:1.0;" x1="118" x2="118" y1="1378.3701" y2="1393.3701"/><polygon fill="#000000" points="114,1383.3701,118,1393.3701,122,1383.3701,118,1387.3701" style="stroke:#000000;stroke-width:1.0;"/><text fill="#000000" font-family="Verdana" font-size="18" lengthAdjust="spacing" textLength="74" x="80" y="71.0625">Клиент</text><text fill="#000000" font-family="Verdana" font-size="18" lengthAdjust="spacing" textLength="241" x="229" y="71.0625">Сотрудник фронт-офиса</text><text fill="#000000" font-family="Verdana" font-size="18" lengthAdjust="spacing" textLength="37" x="689.75" y="71.0625">АБС</text><text fill="#000000" font-family="Verdana" font-size="18" lengthAdjust="spacing" textLength="286" x="991.5" y="71.0625">Процесс пакетной обработки</text><text fill="#000000" font-family="Verdana" font-size="18" lengthAdjust="spacing" textLength="208" x="1332.5" y="71.0625">Кредитный конвейер</text><text fill="#000000" font-family="Verdana" font-size="18" lengthAdjust="spacing" textLength="315" x="1550.5" y="71.0625">Сотрудник бэк-офиса (кредиты)</text><text fill="#000000" font-family="Verdana" font-size="18" lengthAdjust="spacing" textLength="174" x="2007.75" y="71.0625">Система скоринга</text><text fill="#000000" font-family="Verdana" font-size="18" lengthAdjust="spacing" textLength="102" x="2334.5" y="71.0625">СМС-шлюз</text><!--MD5=[8a1c55312383c2945b6a529d92bc48d5]
@startuml
!theme plain
title BPMN-диаграмма: Процесс обработки заявки на кредит

|Клиент|
start
:Подать заявку в отделении;

|Сотрудник фронт-офиса|
:Оформить заявку;

|АБС|
:Заявка сохранена;
note right: Заявка ожидает пакетной выгрузки

|#AntiqueWhite|Процесс пакетной обработки|
note right: **Узкое место:**\nПакетная передача\nзаявок в КК
:<color:violet>Event</color>:**Раз в сутки**;
:Пакет заявок передан;

|Кредитный конвейер|
:Заявка зарегистрирована;

|Сотрудник бэк-офиса (кредиты)|
:Открыть заявку в КК;

|Кредитный конвейер|
:Инициировать скоринг;

|Система скоринга|
note left
  Данные для скоринга
  (из АБС и КК)
  уже загружены в систему
  скоринга в рамках
  другого пакетного процесса
end note
:Запросить данные из БКИ (API);
:Рассчитать скоринговый балл;
:Передать результат в КК;

|Кредитный конвейер|
:Скоринг получен;

|Сотрудник бэк-офиса (кредиты)|
:Принять решение по заявке;
if (Решение?) then (Одобрить)
    :Заявка одобрена;
else (Отказать)
    :Заявка отклонена;
endif

|Кредитный конвейер|
:Статус заявки обновлен;

|#AntiqueWhite|Процесс пакетной обработки|
note right: **Узкое место:**\nПакетная передача\nстатусов в АБС
:<color:violet>Event</color>:**Раз в сутки**;
:Статус заявки передан в АБС;

|АБС|
:Статус заявки обновлен;
:Информировать клиента;

|СМС-шлюз|
:Отправить СМС;

|Клиент|
:Получить СМС с решением;
stop

@enduml

@startuml







<style>
  root {
    BackgroundColor white
    FontColor black
    FontName Verdana
    HyperLinkColor blue
    LineColor black
    LineThickness 1
    Margin 5
  }
  caption {
    LineThickness 0
  }
  footer {
    LineThickness 0
  }
  header {
    LineThickness 0
  }
  node {
    MaximumWidth 300
  }
  title {
    FontSize 22
    LineThickness 0
  }
</style>

skinparam ArrowLollipopColor black
skinparam BackgroundColor white
skinparam DefaultFontName Verdana
skinparam DefaultMonospacedFontName Courier
skinparam LifelineStrategy nosolid
skinparam ParticipantPadding 10
skinparam SequenceLifeLineBorderColor black
skinparam Shadowing false
skinparam UseBetaStyle true

skinparam Activity {
  BackgroundColor white
  BarColor black
  BorderColor black
  FontColor black
  FontName Verdana
}
skinparam Boundary {
  FontColor black
}
skinparam Box {
  Padding 5
}
skinparam CircledCharacter {
  FontColor black
  FontName Courier
  Radius 9
}
skinparam Class {
  BackgroundColor white
  BorderColor black
  FontColor black
  FontName Verdana
}
skinparam ClassAttribute {
  FontColor black
  FontName Verdana
}
skinparam ClassStereotype {
  FontColor black
  FontName Verdana
}
skinparam Footer {
  FontColor black
  FontName Verdana
}
skinparam Header {
  FontColor black
  FontName Verdana
}
skinparam Hyperlink {
  Color blue
}
skinparam IconPackage {
  Color black
  BackgroundColor white
}
skinparam IconPrivate {
  Color black
  BackgroundColor white
}
skinparam IconProtected {
  Color black
  BackgroundColor white
}
skinparam IconPublic {
  Color black
  BackgroundColor white
}
skinparam Note {
  FontColor black
  FontName Verdana
}
skinparam Object {
  BorderColor black
}
skinparam Package {
  BorderColor black
  FontColor black
  FontName Verdana
}
skinparam State {
  BackgroundColor white
  BorderColor black
}
skinparam StereotypeA {
  BackgroundColor white
  BorderColor black
}
skinparam StereotypeC {
  BackgroundColor white
  BorderColor black
}
skinparam StereotypeE {
  BackgroundColor white
  BorderColor black
}
skinparam StereotypeI {
  BackgroundColor white
  BorderColor black
}
skinparam StereotypeN {
  BackgroundColor white
  BorderColor black
}
skinparam UseCaseStereoType {
  FontColor black
  FontName Verdana
}
title BPMN-диаграмма: Процесс обработки заявки на кредит

|Клиент|
start
:Подать заявку в отделении;

|Сотрудник фронт-офиса|
:Оформить заявку;

|АБС|
:Заявка сохранена;
note right: Заявка ожидает пакетной выгрузки

|#AntiqueWhite|Процесс пакетной обработки|
note right: **Узкое место:**\nПакетная передача\nзаявок в КК
:<color:violet>Event</color>:**Раз в сутки**;
:Пакет заявок передан;

|Кредитный конвейер|
:Заявка зарегистрирована;

|Сотрудник бэк-офиса (кредиты)|
:Открыть заявку в КК;

|Кредитный конвейер|
:Инициировать скоринг;

|Система скоринга|
note left
  Данные для скоринга
  (из АБС и КК)
  уже загружены в систему
  скоринга в рамках
  другого пакетного процесса
end note
:Запросить данные из БКИ (API);
:Рассчитать скоринговый балл;
:Передать результат в КК;

|Кредитный конвейер|
:Скоринг получен;

|Сотрудник бэк-офиса (кредиты)|
:Принять решение по заявке;
if (Решение?) then (Одобрить)
    :Заявка одобрена;
else (Отказать)
    :Заявка отклонена;
endif

|Кредитный конвейер|
:Статус заявки обновлен;

|#AntiqueWhite|Процесс пакетной обработки|
note right: **Узкое место:**\nПакетная передача\nстатусов в АБС
:<color:violet>Event</color>:**Раз в сутки**;
:Статус заявки передан в АБС;

|АБС|
:Статус заявки обновлен;
:Информировать клиента;

|СМС-шлюз|
:Отправить СМС;

|Клиент|
:Получить СМС с решением;
stop

@enduml

PlantUML version 1.2022.6(Tue Jun 21 17:34:49 GMT 2022)
(GPL source distribution)
Java Runtime: OpenJDK Runtime Environment
JVM: OpenJDK 64-Bit Server VM
Default Encoding: UTF-8
Language: en
Country: US
--></g></svg>