<?xml version="1.0" encoding="UTF-8" standalone="no"?><svg xmlns="http://www.w3.org/2000/svg" xmlns:xlink="http://www.w3.org/1999/xlink" contentStyleType="text/css" height="416px" preserveAspectRatio="none" style="width:2424px;height:416px;background:#FFFFFF;" version="1.1" viewBox="0 0 2424 416" width="2424px" zoomAndPan="magnify"><defs/><g><rect fill="#FFFFFF" height="35.6094" style="stroke:#FFFFFF;stroke-width:0.0;" width="513" x="951" y="10"/><text fill="#000000" font-family="Verdana" font-size="22" font-weight="bold" lengthAdjust="spacing" textLength="503" x="956" y="35.4209">Карта IT-ландшафта банка "Стандарт"</text><!--MD5=[f57a8552f658d58366764953929b6431]
cluster Бизнес-возможности--><g id="cluster_Бизнес-возможности"><path d="M13.5,206.2979 L279.5,206.2979 A3.75,3.75 0 0 1 282,208.7979 L289,237.9072 L2414.5,237.9072 A2.5,2.5 0 0 1 2417,240.4072 L2417,385.7979 A2.5,2.5 0 0 1 2414.5,388.2979 L13.5,388.2979 A2.5,2.5 0 0 1 11,385.7979 L11,208.7979 A2.5,2.5 0 0 1 13.5,206.2979 " fill="#FFFFFF" style="stroke:#000000;stroke-width:1.0;"/><line style="stroke:#000000;stroke-width:1.0;" x1="11" x2="289" y1="237.9072" y2="237.9072"/><text fill="#000000" font-family="Verdana" font-size="22" font-weight="bold" lengthAdjust="spacing" textLength="265" x="15" y="228.7188">Бизнес-возможности</text></g><!--MD5=[47cf38b49e0d127a54a5da9fd2c5c1d3]
cluster SalesMarketing--><g id="cluster_SalesMarketing"><path d="M1420.9887,272.0353 C1444.0097,238.188 1466.5648,241.7425 1485.5056,275.9059 C1498.6464,245.3477 1528.2953,241.1883 1549.1619,267.2145 C1574.0377,231.0002 1595.2334,231.933 1619.6657,267.6493 C1646.7209,233.9702 1668.4149,242.5833 1690.6546,272.9839 C1709.3321,237.3647 1741.5317,233.0205 1765.7052,267.0628 C1784.4292,237.076 1817.4664,236.591 1837.8488,265.0145 C1856.5802,233.0202 1885.5794,229.846 1905.8935,263.3707 C1925.2028,238.7135 1955.0287,233.5774 1969.1233,268.8706 C1995.6497,236.9468 2024.6767,236.0459 2044.7954,275.6495 C2060.6414,251.1786 2087.0956,252.8733 2102.452,276.2397 C2121.4717,240.9379 2141.7108,234.3995 2170.8526,265.871 C2200.53,228.1448 2230.9333,230.1381 2250.2187,275.7659 C2266.4496,237.8531 2293.8746,235.8877 2317.3399,268.9215 C2338.7377,238.5157 2367.9283,236.8193 2385,273.2979 C2386.006,272.1466 2387.476,272.2297 2387.8947,273.9003 C2399.4279,278.3803 2400.9567,287.0116 2390.5004,294.3003 C2400.1973,298.2693 2402.2383,304.7365 2393.9389,312.1686 C2401.2967,319.8071 2400.788,327.6125 2389.5159,330.8372 C2397.7515,343.9809 2393.434,353.8599 2378,356.2979 C2383.0626,359.7167 2384.3556,364.8009 2378.3244,368.5143 C2360.6794,398.6683 2328.1189,396.9015 2310.0434,369.0208 C2290.6399,398.7163 2263.3073,394.8523 2245.0044,367.7603 C2225.9569,402.9127 2195.7033,395.0063 2177.3227,367.0452 C2154.9596,397.8757 2126.617,400.2054 2107.1151,364.0467 C2087.2759,396.1808 2061.3981,397.2387 2036.6012,369.9274 C2013.1013,402.1097 1980.9631,396.1303 1966.0112,360.9674 C1953.2302,394.1897 1927.6859,399.5061 1904.7307,371.081 C1883.9069,405.1623 1848.8298,402.4463 1830.0182,368.8593 C1807.1269,397.9132 1780.742,400.4244 1760.9257,365.5366 C1745.1901,396.7903 1715.2584,398.1351 1694.5022,371.2751 C1671.1005,395.1867 1645.6285,395.2301 1630.0001,362.4335 C1604.2513,403.6455 1576.2744,394.619 1552.1253,360.7736 C1531.2794,394.8682 1500.5276,391.6562 1482.5106,357.8723 C1454.3464,391.369 1424.0307,390.2739 1404,349.2979 C1405.1809,348.3898 1406.1704,348.2614 1406.7338,349.9483 C1395.0574,347.5949 1392.1072,339.5854 1400.743,330.8577 C1389.4832,326.8376 1389.9703,320.6732 1396.592,312.5899 C1388.2356,304.9503 1389.6593,297.3534 1400.8536,294.2591 C1391.3752,279.7648 1395.2951,271.6537 1411,266.2979 C1416.7938,263.5 1420.1679,266.1752 1420.9887,272.0353 " fill="#FFFFFF" style="stroke:#000000;stroke-width:1.0;"/><text fill="#000000" font-family="Verdana" font-size="22" font-weight="bold" lengthAdjust="spacing" textLength="288" x="1750.5" y="291.7188">Продажи и Маркетинг</text></g><!--MD5=[4566ad84ec7f169c3fcdd03f3256ae39]
cluster ProductService--><g id="cluster_ProductService"><path d="M352.812,272.9701 C372.9176,245.3875 402.1282,247.3622 418.5118,277.2267 C438.3021,242.9226 472.1959,243.9646 493.2525,275.7956 C514.3712,235.8107 544.3795,236.9667 567.9065,273.4442 C593.4815,237.2703 620.6331,235.704 643.3804,276.2267 C659.1464,236.7457 684.7559,235.9957 710.8645,266.2126 C733.1688,227.2081 766.4304,228.2213 786.9145,267.9705 C812.7917,238.89 836.887,231.5172 860.0941,270.8276 C878.9937,239.818 908.6912,242.2076 922.1035,276.0726 C937.7789,233.4624 970.8937,232.6084 996.2535,266.7118 C1022.3253,241.6789 1049.1104,241.099 1066.4293,276.8217 C1084.754,234.63 1125.4502,238.0042 1148.3405,271.9072 C1170.2884,236.5928 1193.3771,242.3118 1215.6263,271.5933 C1239.1396,238.2557 1278.9948,241.4706 1297.2819,277.7253 C1312.6097,242.3656 1344.3925,244.1655 1364,273.2979 C1365.2179,273.7669 1365.3366,274.4953 1364.5477,275.4703 C1374.7787,278.2617 1378.667,285.7575 1370.2414,294.2157 C1378.3722,297.0591 1381.3758,305.4693 1374.2152,311.7736 C1382.8583,319.6918 1379.5893,330.0133 1368.7114,332.8286 C1375.9493,344.6232 1372.6812,355.9401 1357,356.2979 C1362.1077,357.9868 1362.4839,362.2103 1358.6266,365.4863 C1338.1498,397.5976 1316.2456,403.4209 1292.5992,368.6137 C1269.4361,404.8489 1231.9776,393.4704 1215.973,360.6683 C1197.6529,402.014 1175.9269,404.7064 1144.409,373.7273 C1120.6035,409.7358 1084.1659,405.2973 1069.074,365.112 C1048.2732,394.3224 1018.5596,393.9373 998.0929,364.7061 C976.8453,397.2304 951.037,396.7761 928.3675,366.2793 C909.078,403.2926 882.143,401.9806 860.2131,368.8445 C840.5389,407.7698 803.3204,399.017 784.8347,367.5714 C763.7041,402.7019 733.0238,408.1949 711.4271,368.0257 C690.8146,398.246 666.7574,402.9816 643.4222,371.0025 C617.0411,405.389 590.5092,409.3105 567.0906,368.0146 C540.9385,404.7561 516.6628,404.7676 490.2073,368.3333 C470.5873,400.9186 436.62,405.8702 417.8828,367.4343 C386.1737,397.425 349.8065,389.055 333,349.2979 C334.794,349.4064 335.4406,350.8393 334.5539,352.3243 C324.8984,347.4421 321.2561,339.8976 331.2023,331.8126 C320.7282,328.8866 318.1736,318.7736 326.3737,311.4248 C319.5885,304.9713 322.4657,297.5326 330.4318,294.647 C321.8684,281.7809 324.9258,271.1859 340,266.2979 C346.4176,262.8119 352.8551,264.0501 352.812,272.9701 " fill="#FFFFFF" style="stroke:#000000;stroke-width:1.0;"/><text fill="#000000" font-family="Verdana" font-size="22" font-weight="bold" lengthAdjust="spacing" textLength="331" x="683" y="291.7188">Обслуживание продуктов</text></g><!--MD5=[7dced1f7b5a86d147dde15a049f86f4c]
cluster Communications--><g id="cluster_Communications"><path d="M51.2353,266.6297 C55.4609,258.6728 62.7418,259.8318 66.9074,266.6932 C72.1319,258.4371 79.6507,256.8317 85.7058,265.7859 C91.1572,256.6841 98.0374,257.0161 103.4342,265.8398 C106.9296,259.0016 112.7933,258.3121 117.7599,264.1812 C123.5311,254.5882 132.0822,256.9077 136.8643,265.2356 C141.5902,257.8912 147.997,256.8137 153.9752,263.7333 C157.9361,257.7999 163.6984,257.1032 168.1952,263.0943 C174.6169,255.8678 181.0489,255.4612 185.0994,265.4259 C191.5906,258.2098 197.2444,257.2437 203.1121,266.1236 C208.4028,256.5482 213.8131,256.2481 220.099,265.2116 C225.7709,258.2793 230.6863,258.4538 236.1028,265.5039 C242.7394,255.9543 249.7355,258.3056 254.8005,267.1054 C260.4981,258.9827 265.8413,260.0908 270.5508,268.0718 C278.4917,260.006 289.8836,260.6394 293,273.2979 C294.0382,272.5857 294.8473,272.447 295.3016,273.9145 C306.7821,277.7377 308.614,285.0249 301.8493,294.6183 C313.2654,299.8589 313.6119,306.5702 304.4424,314.4962 C311.747,321.8752 309.3163,328.5881 299.8867,331.4777 C307.0799,346.2251 300.5293,353.704 286,356.2979 C287.8516,355.8988 289.3585,357.053 288.5144,359.0854 C282.5709,368.0218 277.2752,365.5261 271.7912,358.6008 C267.182,368.6267 259.209,369.6231 252.8285,360.3404 C248.0767,369.5831 242.0218,369.9266 235.5057,362.1346 C232.5883,369.3931 227.5009,370.3898 221.6062,365.557 C214.8162,375.061 208.7543,374.3483 203.1428,364.4364 C199.8426,372.9133 193.2368,375.3156 186.7285,367.7109 C182.7792,376.0513 174.9753,377.2852 169.6639,369.1191 C163.0485,376.7139 156.4804,374.6255 153.2371,365.755 C147.6922,373.1081 139.9517,372.8983 134.9287,365.1234 C130.1254,370.9324 122.3877,369.7654 119.3902,362.9081 C114.0911,370.4973 108.6799,370.5291 102.7607,363.6194 C96.4684,369.2919 89.3652,368.4585 86.6033,359.6738 C81.6566,368.2643 72.4498,368.6363 67.72,359.4433 C55.3441,367.3811 46.6324,362.6642 43,349.2979 C43.4096,349.3257 43.6046,349.6816 43.3676,350.0329 C32.6837,345.1295 34.0212,335.4615 43.3009,330.4901 C34.901,325.9194 32.9182,320.6227 40.3091,313.3033 C32.3225,306.2416 33.738,296.9736 44.714,294.3097 C34.9501,283.5417 34.279,272.2567 50,266.2979 C50.4793,265.7862 51.0947,265.8809 51.2353,266.6297 " fill="#FFFFFF" style="stroke:#000000;stroke-width:1.0;"/><text fill="#000000" font-family="Verdana" font-size="22" font-weight="bold" lengthAdjust="spacing" textLength="189" x="73.5" y="291.7188">Коммуникации</text></g><!--MD5=[270e9c16bcb1ed204ed01046bec807c6]
cluster IT-системы банка--><g id="cluster_IT-системы банка"><path d="M186.5,59.2979 L409.5,59.2979 A3.75,3.75 0 0 1 412,61.7979 L419,90.9072 L1981.5,90.9072 A2.5,2.5 0 0 1 1984,93.4072 L1984,179.7979 A2.5,2.5 0 0 1 1981.5,182.2979 L186.5,182.2979 A2.5,2.5 0 0 1 184,179.7979 L184,61.7979 A2.5,2.5 0 0 1 186.5,59.2979 " fill="#FFFFFF" style="stroke:#000000;stroke-width:1.0;"/><line style="stroke:#000000;stroke-width:1.0;" x1="184" x2="419" y1="90.9072" y2="90.9072"/><text fill="#000000" font-family="Verdana" font-size="22" font-weight="bold" lengthAdjust="spacing" textLength="222" x="188" y="81.7188">IT-системы банка</text></g><!--MD5=[c92432ea3d28a013dcef14eab14af41f]
cluster Внешние системы--><g id="cluster_Внешние системы"><path d="M2010.5,67.7979 L2241.5,67.7979 A3.75,3.75 0 0 1 2244,70.2979 L2251,99.4072 L2251.5,99.4072 A2.5,2.5 0 0 1 2254,101.9072 L2254,171.2979 A2.5,2.5 0 0 1 2251.5,173.7979 L2010.5,173.7979 A2.5,2.5 0 0 1 2008,171.2979 L2008,70.2979 A2.5,2.5 0 0 1 2010.5,67.7979 " fill="#FFFFFF" style="stroke:#000000;stroke-width:1.0;"/><line style="stroke:#000000;stroke-width:1.0;" x1="2008" x2="2251" y1="99.4072" y2="99.4072"/><text fill="#000000" font-family="Verdana" font-size="22" font-weight="bold" lengthAdjust="spacing" textLength="230" x="2012" y="90.2188">Внешние системы</text></g><!--MD5=[cbc2595cc2fc7aef54cd4d01901c6fbd]
entity LeadGen--><g id="elem_LeadGen"><path d="M2184.2409,310.7034 C2189.1188,304.4609 2194.1672,304.7957 2198.2994,311.5123 C2201.4293,306.2754 2206.5209,305.3542 2209.7962,311.3638 C2213.041,303.8216 2219.3,303.9598 2224.312,309.3857 C2228.9696,302.6775 2233.7324,302.2216 2238.011,309.7504 C2241.4533,302.6604 2248.0723,302.6677 2251.3255,309.9259 C2254.5113,303.7475 2259.5817,303.9227 2263.9374,308.562 C2267.6387,302.1163 2274.2192,302.9091 2277.5549,308.9604 C2281.429,301.9291 2286.1231,302.2554 2290.7888,308.15 C2294.0464,302.8959 2299.3553,302.5928 2302.8233,307.9105 C2308.5242,300.7518 2314.9244,302.6942 2318.0634,310.5167 C2320.6671,304.7487 2326.0297,303.954 2329.6273,309.5011 C2333.3051,304.2996 2339.1222,304.6471 2342.4477,309.9319 C2347.4098,304.3442 2354.4025,304.476 2357.6995,311.8858 C2361.2914,306.3198 2366.1727,304.5633 2370.3449,311.2886 C2377.7809,314.821 2379.3614,321.958 2372.6965,327.5317 C2378.9673,334.1046 2378.1881,340.0139 2369.159,343.1132 C2365.4641,349.3226 2361.8371,350.3272 2356.9082,344.3541 C2354.0488,350.1809 2348.2483,351.5927 2344.5477,345.2053 C2340.8639,351.4379 2335.2823,351.9484 2331.5904,345.2133 C2327.5138,352.4462 2323.3334,351.1885 2318.3635,346.1785 C2315.6571,354.2915 2308.5342,356.061 2302.8545,349.2732 C2299.208,354.4526 2293.9175,355.0996 2290.1648,349.3972 C2286.4917,355.8517 2281.9246,356.6456 2276.2764,351.8314 C2270.8645,356.8079 2266.2581,356.8404 2262.7588,349.698 C2259.518,355.9842 2253.5321,355.064 2250.6576,349.3292 C2246.0382,355.3148 2240.6154,354.0388 2238.515,346.9837 C2234.4391,353.5504 2229.0605,354.0883 2225.2112,346.7666 C2219.5735,351.5548 2214.4508,350.4629 2211.4055,343.6749 C2206.969,349.6517 2201.3997,351.2153 2196.8183,343.8331 C2191.8709,348.9405 2187.0911,348.5002 2184.6612,341.3386 C2176.3928,338.664 2173.9397,333.0008 2179.9192,325.939 C2172.8391,319.4271 2175.4812,312.7222 2184.2409,310.7034 " fill="#FFFFFF" style="stroke:#000000;stroke-width:1.0;"/><text fill="#000000" font-family="Verdana" font-size="14" lengthAdjust="spacing" textLength="172" x="2190" y="330.293">Привлечение клиентов</text></g><!--MD5=[4a9b54771beeb0dae4968a628ad4fde1]
entity BranchSales--><g id="elem_BranchSales"><path d="M1421.2409,310.7034 C1426.1188,304.4609 1431.1672,304.7957 1435.2994,311.5123 C1438.4293,306.2754 1443.5209,305.3542 1446.7962,311.3638 C1450.041,303.8216 1456.3,303.9598 1461.312,309.3857 C1465.9696,302.6775 1470.7324,302.2216 1475.011,309.7504 C1478.4533,302.6604 1485.0723,302.6677 1488.3255,309.9259 C1491.5113,303.7475 1496.5817,303.9227 1500.9374,308.562 C1504.6387,302.1163 1511.2192,302.9091 1514.5549,308.9604 C1518.429,301.9291 1523.1231,302.2554 1527.7888,308.15 C1531.0464,302.8959 1536.3553,302.5928 1539.8233,307.9105 C1545.5242,300.7518 1551.9244,302.6942 1555.0634,310.5167 C1557.6671,304.7487 1563.0297,303.954 1566.6273,309.5011 C1570.3051,304.2996 1576.1222,304.6471 1579.4477,309.9319 C1584.4098,304.3442 1591.4025,304.476 1594.6995,311.8858 C1598.2914,306.3198 1603.1727,304.5633 1607.3449,311.2886 C1614.7809,314.821 1616.3614,321.958 1609.6965,327.5317 C1615.9673,334.1046 1615.1881,340.0139 1606.159,343.1132 C1602.4641,349.3226 1598.8371,350.3272 1593.9082,344.3541 C1591.0488,350.1809 1585.2483,351.5927 1581.5477,345.2053 C1577.8639,351.4379 1572.2823,351.9484 1568.5904,345.2133 C1564.5138,352.4462 1560.3334,351.1885 1555.3635,346.1785 C1552.6571,354.2915 1545.5342,356.061 1539.8545,349.2732 C1536.208,354.4526 1530.9175,355.0996 1527.1648,349.3972 C1523.4917,355.8517 1518.9246,356.6456 1513.2764,351.8314 C1507.8645,356.8079 1503.2581,356.8404 1499.7588,349.698 C1496.518,355.9842 1490.5321,355.064 1487.6576,349.3292 C1483.0382,355.3148 1477.6154,354.0388 1475.515,346.9837 C1471.4391,353.5504 1466.0605,354.0883 1462.2112,346.7666 C1456.5735,351.5548 1451.4508,350.4629 1448.4055,343.6749 C1443.969,349.6517 1438.3997,351.2153 1433.8183,343.8331 C1428.8709,348.9405 1424.0911,348.5002 1421.6612,341.3386 C1413.3928,338.664 1410.9397,333.0008 1416.9192,325.939 C1409.8391,319.4271 1412.4812,312.7222 1421.2409,310.7034 " fill="#FFFFFF" style="stroke:#000000;stroke-width:1.0;"/><text fill="#000000" font-family="Verdana" font-size="14" lengthAdjust="spacing" textLength="172" x="1427" y="330.293">Продажи в отделениях</text></g><!--MD5=[d7e8886b52629f04e3fb5353a34ae4c4]
entity OnlineSales--><g id="elem_OnlineSales"><path d="M1919.6191,311.092 C1924.0309,303.6477 1930.8632,303.1321 1935.9754,310.3084 C1940.5702,302.9986 1945.2878,303.847 1950.5478,309.5642 C1955.7189,302.1149 1961.9626,302.6157 1965.6935,310.9465 C1969.2013,302.2175 1975.904,301.8284 1981.2007,309.2262 C1984.74,300.5949 1992.2677,301.0182 1996.8028,308.2466 C2001.4924,301.4008 2007.2798,301.2791 2011.5004,308.7287 C2015.134,302.7017 2021.4057,301.3946 2025.4434,308.2927 C2031.3959,300.1412 2037.0449,299.4019 2042.5675,308.7143 C2046.4462,302.358 2052.442,301.213 2056.7427,308.2682 C2062.1904,301.9501 2067.9077,302.7355 2071.18,310.4985 C2075.3536,303.6354 2082.5841,301.9922 2086.8918,310.3603 C2092.0231,301.3608 2098.2452,302.8525 2103.8756,309.8297 C2107.5711,302.7492 2114.3621,302.1879 2118.0785,309.8095 C2123.0524,302.293 2128.1549,302.7566 2132.5385,310.3735 C2144.0596,310.2819 2146.5264,315.9625 2144.174,326.1214 C2149.2402,338.1417 2144.2526,342.3424 2132.6133,342.7448 C2126.6594,349.8354 2121.6796,350.6625 2116.5833,341.8788 C2112.3583,349.979 2106.4826,350.5837 2101.2973,342.8031 C2098.1305,350.3239 2091.4566,349.6919 2087.0587,344.1444 C2083.8552,350.6006 2076.779,351.1626 2072.8109,345.0082 C2067.3813,351.4146 2061.8992,352.2608 2056.9396,344.4824 C2051.821,351.8814 2046.8343,352.8618 2041.4519,344.7457 C2037.2456,351.8951 2031.8638,352.7706 2026.3529,346.1792 C2021.3598,353.6605 2015.6603,352.5736 2011.6851,345.1758 C2006.3407,351.5618 2000.3243,353.1796 1995.5825,344.5305 C1990.7041,353.0556 1985.9123,353.4077 1980.1553,345.3478 C1973.8223,351.6564 1968.215,352.1856 1964.1511,343.0034 C1960.0202,350.9888 1954.7626,351.7072 1949.2521,344.3425 C1944.6994,349.6597 1939.0288,349.661 1935.5414,343.1116 C1930.2291,350.8166 1924.0664,350.354 1919.4257,342.4195 C1910.0761,338.9777 1909.0965,333.2322 1916.4954,326.6735 C1909.986,321.2236 1910.5029,313.4093 1919.6191,311.092 " fill="#FFFFFF" style="stroke:#000000;stroke-width:1.0;"/><text fill="#000000" font-family="Verdana" font-size="14" lengthAdjust="spacing" textLength="199" x="1925.5" y="330.293">Продажи в онлайн-каналах</text></g><!--MD5=[bf491db8efa63a0e2e8c4fdb92c735e3]
entity CCSales--><g id="elem_CCSales"><path d="M1658.5834,312.6927 C1661.7933,306.1305 1669.1751,304.1028 1673.6165,311.3523 C1677.1365,304.1207 1684.0014,303.9041 1687.674,311.2047 C1691.8514,302.9984 1699.1448,303.3544 1703.4033,311.1249 C1707.1587,303.2713 1713.666,303.6222 1718.8076,309.5786 C1723.6474,301.2073 1729.0761,300.9232 1734.8197,308.6814 C1737.8125,301.7819 1743.1138,302.3675 1747.2324,307.522 C1752.974,299.9982 1758.5486,298.8176 1764.7147,307.0509 C1768.8269,301.2074 1775.4411,301.4229 1777.9992,308.6326 C1782.9619,302.2037 1790.9309,301.105 1794.3237,310.2756 C1796.9693,302.1485 1803.8144,301.7583 1808.4284,308.3951 C1813.9001,301.7225 1818.6196,303.5281 1822.4278,310.1472 C1826.7946,302.2538 1832.9881,302.155 1837.7988,309.7053 C1842.8732,302.8804 1848.9878,303.6443 1852.767,311.0661 C1856.6134,304.6795 1863.7742,304.1234 1867.0215,311.6787 C1878.4428,308.6804 1884.875,314.3693 1881.7332,326.1629 C1884.8035,336.2096 1881.2184,343.3219 1869.6127,342.4408 C1864.0744,350.8713 1856.6876,350.2221 1852.0028,341.5614 C1847.9645,348.6538 1843.6968,348.3352 1838.235,343.1589 C1834.3959,350.3167 1828.3858,349.3412 1824.2237,343.5073 C1818.7275,350.5216 1812.124,349.5274 1808.7423,341.3521 C1804.6952,349.8408 1798.0129,348.8763 1792.9282,342.4525 C1787.9961,350.584 1783.1305,348.7719 1778.1089,342.5448 C1774.4291,348.828 1769.1254,348.7867 1764.7309,343.3614 C1759.7039,351.1673 1753.0958,351.5431 1747.9712,343.4644 C1743.4061,350.0855 1737.7754,350.1278 1734.2096,342.4993 C1729.8243,351.1968 1723.0658,349.3375 1718.1979,343.0137 C1713.9657,349.7352 1709.1644,349.761 1704.5961,343.3621 C1699.5503,351.2266 1691.8693,349.4066 1688.2266,341.8708 C1684.169,349.2972 1677.5086,350.1983 1672.6274,342.7335 C1668.1348,348.8867 1660.7446,348.8103 1657.2584,341.578 C1648.7409,337.9758 1649.7388,332.3677 1655.1895,326.8089 C1649.9285,320.5683 1651.3679,315.9336 1658.5834,312.6927 " fill="#FFFFFF" style="stroke:#000000;stroke-width:1.0;"/><text fill="#000000" font-family="Verdana" font-size="14" lengthAdjust="spacing" textLength="196" x="1664" y="330.293">Продажи через кол-центр</text></g><!--MD5=[a847eeff0cf93fdfd075f5d30a50b425]
entity PricingMgmt--><g id="elem_PricingMgmt"><path d="M352.2406,313.4169 C355.9201,304.6317 362.4329,303.29 368.8411,310.603 C372.7432,301.859 380.2026,300.8912 385.2322,309.5405 C390.4058,300.9378 400.3164,299.7606 405.1658,309.8854 C409.5851,301.6177 415.6107,300.6268 421.6681,308.1763 C428.3663,300.3085 433.3341,302.3177 438.0007,310.2733 C442.8712,298.7859 451.0234,298.2463 458.5209,307.6989 C464.8838,301.0887 470.2332,300.0871 475.5799,308.8281 C479.5756,300.3538 486.0145,301.6151 490.7181,308.1123 C495.1828,300.0195 504.1611,298.3154 509.174,307.5275 C515.4671,299.0633 523.1194,301.9885 526.8209,310.2602 C531.755,302.8838 540.7484,303.5248 544.8234,311.2822 C550.4921,302.0665 556.7388,301.187 562.8536,310.8563 C568.0546,304.5834 575.6718,304.0165 579.3326,312.5684 C585.0924,302.6183 593.2778,302.6172 599.3431,312.2563 C609.2201,314.1541 611.5991,320.0468 606.2669,328.4482 C610.2659,335.8925 606.4499,340.0925 598.9773,340.7259 C594.1766,351.1049 586.2179,351.5444 579.4825,342.6864 C575.1102,350.5483 570.1046,351.5076 563.49,345.221 C557.7494,354.2812 549.123,354.2182 544.8251,343.836 C540.3259,352.5335 534.7125,353.2104 527.284,347.3706 C522.4246,355.0585 515.7064,355.3392 511.4219,346.8084 C506.4744,355.4649 498.8153,354.2011 493.6652,347.0359 C488.0136,357.6633 481.6332,357.7948 473.8105,349.2888 C467.5011,355.43 460.7338,355.5455 457.0446,346.4126 C451.6255,354.4096 445.6489,353.6807 439.8653,346.8345 C435.3347,353.939 427.5948,355.8805 422.6885,347.2445 C417.7957,356.2294 409.1618,356.1081 405.1083,346.453 C397.9806,354.2931 391.1761,354.0601 385.8282,344.4829 C379.9121,351.1294 373.4501,351.1997 369.8472,342.1306 C364.1525,351.6282 355.4336,351.0259 350.28,341.5719 C345.8101,339.9431 345.5718,336.5343 349.1379,333.7345 C344.441,332.1055 344.4749,329.4304 347.4537,326.1066 C344.3161,322.8249 345.3112,320.7253 349.1951,319.2188 C347.5577,316.4661 348.9512,313.5835 352.2406,313.4169 " fill="#FFFFFF" style="stroke:#000000;stroke-width:1.0;"/><text fill="#000000" font-family="Verdana" font-size="14" lengthAdjust="spacing" textLength="233" x="356.5" y="330.293">Управление ценообразованием</text></g><!--MD5=[2c47b1d78f6c7b4616169d5dcd3f0035]
entity DepoService--><g id="elem_DepoService"><path d="M896.6446,310.6793 C900.9656,303.2122 907.9391,303.3149 911.9139,311.0276 C916.8568,304.9641 922.5621,304.4837 926.6843,311.9252 C931.4797,303.2343 936.513,304.1847 942.6179,310.5382 C945.6893,302.8348 952.3553,301.0182 957.4613,308.5568 C962.6883,302.8061 967.65,303.6778 971.3827,310.2456 C975.5399,301.5186 980.9803,301.8712 986.9775,308.3597 C991.7982,302.0085 996.3484,300.1382 1001.5131,308.0082 C1006.5919,300.3896 1012.677,302.0001 1016.9011,308.9133 C1022.3824,302.2361 1027.0925,302.9871 1031.6124,309.9502 C1035.2493,302.2605 1041.3583,302.6913 1045.8948,309.0345 C1050.5671,303.0204 1058.1278,303.513 1061.3213,310.7553 C1064.4723,303.0768 1071.1727,304.625 1074.9693,310.0846 C1079.2898,302.3349 1085.3831,302.4425 1089.6505,310.1352 C1093.6726,302.8116 1100.1433,303.3796 1103.7041,310.5815 C1112.5383,311.0147 1117.043,318.3027 1111.5026,326.0044 C1117.8223,335.073 1113.7705,340.654 1104.3839,343.233 C1100.1069,351.1233 1093.0446,349.8019 1089.5783,342.4457 C1085.8361,349.569 1080.7532,350.6137 1074.9388,344.7884 C1070.4949,351.8955 1065.9692,352.6985 1061.0521,345.2394 C1058.2943,354.2888 1051.1913,356.6568 1044.4651,349.236 C1040.2885,355.2471 1035.4679,353.9487 1032.1541,348.3232 C1028.2832,357.019 1023.1867,357.6351 1016.2129,351.7051 C1012.3103,357.9958 1005.0842,357.5423 1001.3506,351.5014 C996.4783,359.2642 990.5775,358.6394 986.0589,351.1468 C980.9937,357.9079 974.015,356.2905 971.8091,348.3714 C967.6744,355.1934 961.0409,354.1932 958.3982,346.9489 C952.9178,355.8701 947.611,355.4769 941.3328,347.7675 C935.7601,354.3915 931.3516,354.4045 927.3835,346.2526 C921.5596,352.4464 915.9354,352.1378 912.5978,343.7342 C907.1415,349.6939 901.565,349.4122 898.6945,341.1978 C887.4727,341.9356 884.964,335.7039 888.5897,326.3423 C883.1574,317.5918 887.3408,311.8515 896.6446,310.6793 " fill="#FFFFFF" style="stroke:#000000;stroke-width:1.0;"/><text fill="#000000" font-family="Verdana" font-size="14" lengthAdjust="spacing" textLength="193" x="903.5" y="330.293">Обслуживание депозитов</text></g><!--MD5=[4c298bcc7108f21739f06ef0b2717d3a]
entity CreditService--><g id="elem_CreditService"><path d="M650.545,310.9765 C655.3749,305.6813 659.2447,305.8989 662.7255,312.3728 C665.8013,304.6106 672.7452,302.6437 678.149,309.9974 C681.3717,304.2324 688.1979,302.0382 692.0261,309.3551 C697.392,302.5906 702.1647,303.1303 706.0601,310.7862 C709.572,303.886 714.0715,302.22 719.7055,308.6069 C724.7514,300.4723 729.8684,302.5535 734.8559,308.669 C737.4264,301.9143 743.4728,302.0224 747.2192,307.4784 C753.4194,300.1054 759.6972,300.6432 763.7796,309.6231 C766.9739,303.2794 770.5261,302.4567 775.5306,307.8036 C781.0322,300.2766 787.3566,300.6684 791.7439,308.9466 C795.4344,301.3514 802.3719,302.1133 806.1157,308.8934 C810.4711,302.9042 815.3143,304.2718 818.6382,309.9961 C822.777,303.6698 828.8044,304.184 832.3277,310.6546 C837.7519,303.2954 844.5364,304.2097 848.4166,312.2661 C857.5833,314.3378 858.5769,319.9695 853.7476,327.0784 C858.6965,333.4613 857.1549,341.7183 847.7202,342.4677 C844.1939,349.5789 837.7154,348.8635 834.3746,342.2869 C831.4124,350.3025 824.376,350.5801 819.3248,344.5206 C813.8682,352.2546 808.4497,350.6801 803.9335,343.547 C800.9206,350.5472 795.5135,349.2833 791.578,344.5156 C787.8877,351.7107 780.5307,351.5516 776.2013,345.2433 C772.6749,352.711 767.0166,352.7791 762.7377,345.952 C758.7205,352.6331 754.4583,353.0405 749.2675,347.216 C744.6123,353.3267 738.3936,352.7824 735.3955,345.4996 C730.3204,351.8067 724.5728,351.8615 719.6818,345.2752 C714.6846,352.467 709.5898,352.2127 705.4484,344.4601 C700.9115,350.6008 694.5336,350.036 691.0739,343.2613 C688.0969,349.0008 681.9121,349.7788 678.5792,343.6355 C673.8522,350.05 668.2573,349.2873 664.5451,342.5524 C659.6431,349.9593 653.6605,349.7223 649.2112,342.0908 C640.299,339.5178 638.2449,334.3467 644.3091,326.9309 C639.2413,319.7467 641.1898,312.5234 650.545,310.9765 " fill="#FFFFFF" style="stroke:#000000;stroke-width:1.0;"/><text fill="#000000" font-family="Verdana" font-size="14" lengthAdjust="spacing" textLength="184" x="655" y="330.293">Обслуживание кредитов</text></g><!--MD5=[38b8af259c8fab43c6014aa8bf54c3b8]
entity ContractMgmt--><g id="elem_ContractMgmt"><path d="M1155.6116,310.614 C1159.9802,305.3916 1165.1286,304.9519 1168.7489,311.4527 C1172.6538,303.0855 1177.9989,304.0007 1183.7446,309.4555 C1187.6789,303.1883 1192.8753,304.1862 1195.8624,310.3769 C1200.0301,302.4 1207.1419,303.6218 1211.1947,310.4954 C1213.9656,303.7503 1219.2395,302.4719 1224.4813,307.7691 C1229.5713,300.9296 1233.7264,302.0543 1238.254,308.3583 C1241.7446,300.0274 1248.7711,299.9135 1253.1618,307.5161 C1256.3203,301.9461 1262.3708,302.7316 1265.3116,307.7655 C1270.5218,300.4288 1277.145,302.893 1280.715,309.5685 C1284.5719,304.9963 1289.5763,304.4238 1292.3665,310.7129 C1297.9017,302.2121 1302.7266,302.6856 1308.3407,310.6363 C1312.2561,304.2854 1318.0237,304.742 1321.541,311.0515 C1324.9317,304.8551 1330.9325,304.5857 1334.6781,310.6719 C1339.8264,303.8801 1343.7123,305.8391 1347.762,311.7991 C1356.7581,313.9362 1358.5445,319.7797 1352.3533,326.6212 C1359.5554,332.5227 1357.3809,338.8222 1349.6419,342.1078 C1347.2485,350.1887 1340.7842,350.7021 1335.9821,344.3945 C1332.1627,352.6645 1326.1721,353.5248 1320.9157,345.7433 C1318.3189,352.6567 1312.5419,353.4171 1308.3078,347.3314 C1303.7775,355.0577 1296.5744,354.6822 1292.5387,346.8308 C1289.7071,353.5332 1284.0181,354.7261 1278.927,349.3844 C1276.1149,355.3698 1271.6634,355.7007 1267.2795,351.1165 C1262.9896,359.5446 1256.9349,357.6691 1252.0482,351.75 C1248.405,357.8086 1243.0446,357.9512 1239.3738,351.7786 C1234.0483,358.0027 1227.8119,357.1711 1224.7372,349.421 C1219.8581,357.1771 1213.9971,355.0612 1209.698,348.7987 C1204.777,353.8333 1201.4564,352.1229 1198.4598,346.7256 C1193.4014,352.7251 1187.6493,352.6835 1184.5976,344.7318 C1179.2545,351.6269 1172.9105,350.6577 1169.9678,342.4124 C1164.5162,349.4633 1160.0071,347.6966 1155.9113,341.0237 C1144.3469,342.0036 1140.3331,336.4131 1144.1411,325.6352 C1141.0433,316.479 1144.8158,309.1607 1155.6116,310.614 " fill="#FFFFFF" style="stroke:#000000;stroke-width:1.0;"/><text fill="#000000" font-family="Verdana" font-size="14" lengthAdjust="spacing" textLength="179" x="1161.5" y="330.293">Управление договорами</text></g><!--MD5=[696c7f930bb5c1b172c88ca7bb884c22]
entity CustomerComms--><g id="elem_CustomerComms"><path d="M61.6818,311.4975 C66.5869,303.7974 71.8886,304.1593 77.0005,311.2838 C80.7301,304.5092 87.1632,302.6891 91.9615,310.1616 C95.4879,302.5232 102.2803,303.9399 106.1148,309.8394 C111.8256,300.8374 117.0394,302.4358 123.0598,309.5131 C127.5173,300.7257 134.2248,300.6449 139.0424,309.1809 C143.6242,301.0314 150.5248,301.7352 155.2022,309.0812 C158.6174,303.2496 165.1012,302.2699 169.1974,308.2762 C173.7729,299.974 180.3488,300.2521 185.3454,307.8485 C189.9998,301.5665 197.8461,301.4751 201.2785,309.2349 C205.2242,301.5607 210.2249,302.4076 214.8593,308.5583 C220.7637,302.0923 228.4024,302.0434 231.6643,311.3701 C237.3086,302.7379 242.496,302.849 247.9275,311.5695 C250.9802,303.5551 257.7802,302.4987 262.6959,309.7695 C267.1277,303.1074 274.0014,304.4924 277.4853,310.8466 C288.1529,309.1366 294.3905,316.3465 290.0679,326.6053 C293.6926,337.2138 290.1196,344.6712 277.6205,343.1458 C272.7727,350.5275 267.7126,351.8057 261.9464,344.0999 C258.0357,351.5981 251.2214,351.0412 246.7438,344.7238 C242.2524,352.1175 237.1026,351.9023 232.4106,344.9238 C228.6824,353.1163 221.1288,354.2339 216.1518,346.1731 C212.5598,353.1933 206.6528,354.3327 201.29,348.1695 C196.1492,357.9326 189.7102,356.7909 183.7879,348.9463 C182.3715,356.6933 176.0914,358.7173 170.6883,352.7559 C165.133,360.6956 158.5763,359.3336 154.7272,351.0747 C147.369,358.5981 142.1235,357.0621 137.483,348.2125 C133.1263,355.6147 126.2795,354.8843 122.9985,347.181 C118.5336,355.9501 110.78,353.8148 106.4394,347.0487 C100.2126,353.9435 92.9557,352.5189 90.153,343.5364 C85.3143,349.9161 80.4009,349.4868 77.1819,342.0192 C71.7157,349.5006 63.8606,350.2603 59.6903,340.6899 C51.0357,340.1727 48.2245,335.8722 52.8095,328.1122 C47.1968,319.7106 50.9804,311.1872 61.6818,311.4975 " fill="#FFFFFF" style="stroke:#000000;stroke-width:1.0;"/><text fill="#000000" font-family="Verdana" font-size="14" lengthAdjust="spacing" textLength="204" x="66" y="330.293">Информирование клиентов</text></g><!--MD5=[267c1c121543e29b214c7e2be8e6d7c3]
entity Website--><g id="elem_Website"><rect fill="#FFFFFF" height="46.2969" rx="2.5" ry="2.5" style="stroke:#000000;stroke-width:1.0;" width="76" x="1892" y="111.7979"/><rect fill="#FFFFFF" height="10" style="stroke:#000000;stroke-width:1.0;" width="15" x="1948" y="116.7979"/><rect fill="#FFFFFF" height="2" style="stroke:#000000;stroke-width:1.0;" width="4" x="1946" y="118.7979"/><rect fill="#FFFFFF" height="2" style="stroke:#000000;stroke-width:1.0;" width="4" x="1946" y="122.7979"/><text fill="#000000" font-family="Verdana" font-size="14" lengthAdjust="spacing" textLength="36" x="1907" y="144.793">Сайт</text></g><!--MD5=[f00a8a3d570de16bf6061900e7c26f33]
entity IB--><g id="elem_IB"><rect fill="#FFFFFF" height="46.2969" rx="2.5" ry="2.5" style="stroke:#000000;stroke-width:1.0;" width="152" x="1705" y="111.7979"/><rect fill="#FFFFFF" height="10" style="stroke:#000000;stroke-width:1.0;" width="15" x="1837" y="116.7979"/><rect fill="#FFFFFF" height="2" style="stroke:#000000;stroke-width:1.0;" width="4" x="1835" y="118.7979"/><rect fill="#FFFFFF" height="2" style="stroke:#000000;stroke-width:1.0;" width="4" x="1835" y="122.7979"/><text fill="#000000" font-family="Verdana" font-size="14" lengthAdjust="spacing" textLength="112" x="1720" y="144.793">Интернет-банк</text></g><!--MD5=[bfbe2cf9a58f7f415bda9a75ae6028dc]
entity CC_System--><g id="elem_CC_System"><rect fill="#FFFFFF" height="46.2969" rx="2.5" ry="2.5" style="stroke:#000000;stroke-width:1.0;" width="192" x="1478" y="111.7979"/><rect fill="#FFFFFF" height="10" style="stroke:#000000;stroke-width:1.0;" width="15" x="1650" y="116.7979"/><rect fill="#FFFFFF" height="2" style="stroke:#000000;stroke-width:1.0;" width="4" x="1648" y="118.7979"/><rect fill="#FFFFFF" height="2" style="stroke:#000000;stroke-width:1.0;" width="4" x="1648" y="122.7979"/><text fill="#000000" font-family="Verdana" font-size="14" lengthAdjust="spacing" textLength="152" x="1493" y="144.793">Система кол-центра</text></g><!--MD5=[4957b1c508f3102a250d25fb3c00ba34]
entity Partner_CC_System--><g id="elem_Partner_CC_System"><rect fill="#FFFFFF" height="46.2969" rx="2.5" ry="2.5" style="stroke:#000000;stroke-width:1.0;" width="235" x="1207.5" y="111.7979"/><rect fill="#FFFFFF" height="10" style="stroke:#000000;stroke-width:1.0;" width="15" x="1422.5" y="116.7979"/><rect fill="#FFFFFF" height="2" style="stroke:#000000;stroke-width:1.0;" width="4" x="1420.5" y="118.7979"/><rect fill="#FFFFFF" height="2" style="stroke:#000000;stroke-width:1.0;" width="4" x="1420.5" y="122.7979"/><text fill="#000000" font-family="Verdana" font-size="14" lengthAdjust="spacing" textLength="195" x="1222.5" y="144.793">Система партнёрского КЦ</text></g><!--MD5=[c29a2acf2a97b3b003038fc99be3f83d]
entity ABS_System--><g id="elem_ABS_System"><rect fill="#FFFFFF" height="46.2969" rx="2.5" ry="2.5" style="stroke:#000000;stroke-width:1.0;" width="69" x="1103.5" y="111.7979"/><rect fill="#FFFFFF" height="10" style="stroke:#000000;stroke-width:1.0;" width="15" x="1152.5" y="116.7979"/><rect fill="#FFFFFF" height="2" style="stroke:#000000;stroke-width:1.0;" width="4" x="1150.5" y="118.7979"/><rect fill="#FFFFFF" height="2" style="stroke:#000000;stroke-width:1.0;" width="4" x="1150.5" y="122.7979"/><text fill="#000000" font-family="Verdana" font-size="14" lengthAdjust="spacing" textLength="29" x="1118.5" y="144.793">АБС</text></g><!--MD5=[361c532eeb5b3c206a5be24a592497f7]
entity CreditConveyor--><g id="elem_CreditConveyor"><rect fill="#FFFFFF" height="46.2969" rx="2.5" ry="2.5" style="stroke:#000000;stroke-width:1.0;" width="199" x="869.5" y="111.7979"/><rect fill="#FFFFFF" height="10" style="stroke:#000000;stroke-width:1.0;" width="15" x="1048.5" y="116.7979"/><rect fill="#FFFFFF" height="2" style="stroke:#000000;stroke-width:1.0;" width="4" x="1046.5" y="118.7979"/><rect fill="#FFFFFF" height="2" style="stroke:#000000;stroke-width:1.0;" width="4" x="1046.5" y="122.7979"/><text fill="#000000" font-family="Verdana" font-size="14" lengthAdjust="spacing" textLength="159" x="884.5" y="144.793">Кредитный конвейер</text></g><!--MD5=[400bc3a27aba60afee78da53accd1d92]
entity ScoringSystem--><g id="elem_ScoringSystem"><rect fill="#FFFFFF" height="46.2969" rx="2.5" ry="2.5" style="stroke:#000000;stroke-width:1.0;" width="174" x="660" y="111.7979"/><rect fill="#FFFFFF" height="10" style="stroke:#000000;stroke-width:1.0;" width="15" x="814" y="116.7979"/><rect fill="#FFFFFF" height="2" style="stroke:#000000;stroke-width:1.0;" width="4" x="812" y="118.7979"/><rect fill="#FFFFFF" height="2" style="stroke:#000000;stroke-width:1.0;" width="4" x="812" y="122.7979"/><text fill="#000000" font-family="Verdana" font-size="14" lengthAdjust="spacing" textLength="134" x="675" y="144.793">Система скоринга</text></g><!--MD5=[836c28ccc40eb5cf7edce42b8105932a]
entity SMS_Gateway--><g id="elem_SMS_Gateway"><rect fill="#FFFFFF" height="46.2969" rx="2.5" ry="2.5" style="stroke:#000000;stroke-width:1.0;" width="119" x="200.5" y="111.7979"/><rect fill="#FFFFFF" height="10" style="stroke:#000000;stroke-width:1.0;" width="15" x="299.5" y="116.7979"/><rect fill="#FFFFFF" height="2" style="stroke:#000000;stroke-width:1.0;" width="4" x="297.5" y="118.7979"/><rect fill="#FFFFFF" height="2" style="stroke:#000000;stroke-width:1.0;" width="4" x="297.5" y="122.7979"/><text fill="#000000" font-family="Verdana" font-size="14" lengthAdjust="spacing" textLength="79" x="215.5" y="144.793">СМС-шлюз</text></g><!--MD5=[fcc5993bf2574c62b24947ca448965b3]
entity Manual_Rates--><g id="elem_Manual_Rates"><rect fill="#FFFFFF" height="62.5938" rx="2.5" ry="2.5" style="stroke:#000000;stroke-width:1.0;" width="270" x="355" y="103.2979"/><rect fill="#FFFFFF" height="10" style="stroke:#000000;stroke-width:1.0;" width="15" x="605" y="108.2979"/><rect fill="#FFFFFF" height="2" style="stroke:#000000;stroke-width:1.0;" width="4" x="603" y="110.2979"/><rect fill="#FFFFFF" height="2" style="stroke:#000000;stroke-width:1.0;" width="4" x="603" y="114.2979"/><text fill="#000000" font-family="Verdana" font-size="14" font-style="italic" lengthAdjust="spacing" textLength="67" x="451.5" y="136.293">«Manual»</text><text fill="#000000" font-family="Verdana" font-size="14" lengthAdjust="spacing" textLength="230" x="370" y="152.5898">Процесс расчета ставок (Excel)</text></g><!--MD5=[03905f39b70258b9398ec6f41d3f83e8]
entity BKI--><g id="elem_BKI"><rect fill="#FFFFFF" height="46.2969" rx="2.5" ry="2.5" style="stroke:#000000;stroke-width:1.0;" width="70" x="2024" y="111.7979"/><rect fill="#FFFFFF" height="10" style="stroke:#000000;stroke-width:1.0;" width="15" x="2074" y="116.7979"/><rect fill="#FFFFFF" height="2" style="stroke:#000000;stroke-width:1.0;" width="4" x="2072" y="118.7979"/><rect fill="#FFFFFF" height="2" style="stroke:#000000;stroke-width:1.0;" width="4" x="2072" y="122.7979"/><text fill="#000000" font-family="Verdana" font-size="14" lengthAdjust="spacing" textLength="30" x="2039" y="144.793">БКИ</text></g><!--MD5=[452ef832cea47bd096bd4e12a3c77ba4]
link Website to LeadGen--><g id="link_Website_LeadGen"><path d="M1954.01,157.8779 C1968.51,169.7879 1988.01,183.4079 2008,190.2979 C2039.35,201.0979 2126.91,184.3579 2157,198.2979 C2205.32,220.6879 2243.71,272.3479 2262.8,302.0979 " fill="none" id="Website-LeadGen" style="stroke:#000000;stroke-width:1.0;"/></g><!--MD5=[b13949263de0f956deb6561f88b4a0de]
link IB to OnlineSales--><g id="link_IB_OnlineSales"><path d="M1817.1,157.9479 C1834.38,168.2279 1855.51,180.3479 1875,190.2979 C1882.8,194.2779 1885.73,193.4279 1893,198.2979 C1938.27,228.6279 1982.3,275.0779 2006.31,302.2979 " fill="none" id="IB-OnlineSales" style="stroke:#000000;stroke-width:1.0;"/></g><!--MD5=[47f01e1b787438ca206a92d8d1c0c76e]
link CC_System to CCSales--><g id="link_CC_System_CCSales"><path d="M1596.3,158.1579 C1632.58,194.5379 1703.94,266.0879 1740.02,302.2579 " fill="none" id="CC_System-CCSales" style="stroke:#000000;stroke-width:1.0;"/></g><!--MD5=[72f1bc479ebfbc1f5ebc2fd5dd700678]
link Partner_CC_System to CCSales--><g id="link_Partner_CC_System_CCSales"><path d="M1369.14,157.8679 C1395.18,169.7579 1429.18,183.3879 1461,190.2979 C1498.17,198.3779 1597.08,183.1979 1632,198.2979 C1683.2,220.4479 1725.9,272.4579 1747.27,302.2679 " fill="none" id="Partner_CC_System-CCSales" style="stroke:#000000;stroke-width:1.0;"/></g><!--MD5=[16ee7c504d2c1d2e5b174808b640d980]
link ABS_System to BranchSales--><g id="link_ABS_System_BranchSales"><path d="M1152.57,157.8579 C1161.76,169.7479 1174.76,183.3779 1190,190.2979 C1226.86,207.0379 1334.5,183.0379 1372,198.2979 C1425.97,220.2679 1472.88,272.3479 1496.58,302.2179 " fill="none" id="ABS_System-BranchSales" style="stroke:#000000;stroke-width:1.0;"/></g><!--MD5=[6ad6dcdbc8ef1c34baf117f1f511ac01]
link ABS_System to DepoService--><g id="link_ABS_System_DepoService"><path d="M1121.63,158.1579 C1095,194.5379 1042.62,266.0879 1016.14,302.2579 " fill="none" id="ABS_System-DepoService" style="stroke:#000000;stroke-width:1.0;"/></g><!--MD5=[1606b5c6bf0bc67173f1398b9d23584e]
link ABS_System to CreditService--><g id="link_ABS_System_CreditService"><path d="M1123.45,157.8979 C1114.26,169.7979 1101.26,183.4279 1086,190.2979 C1042.4,209.9279 914.75,179.0079 871,198.2979 C821.15,220.2779 780.82,272.3479 760.77,302.2179 " fill="none" id="ABS_System-CreditService" style="stroke:#000000;stroke-width:1.0;"/></g><!--MD5=[4b48348f2e8785b875dfe124c6c951da]
link ABS_System to ContractMgmt--><g id="link_ABS_System_ContractMgmt"><path d="M1151.41,158.1579 C1173.21,194.5379 1216.1,266.0879 1237.79,302.2579 " fill="none" id="ABS_System-ContractMgmt" style="stroke:#000000;stroke-width:1.0;"/></g><!--MD5=[a65048b2ac1b2ad7e5bc7c72993980a0]
link CreditConveyor to CreditService--><g id="link_CreditConveyor_CreditService"><path d="M929.93,157.9279 C911.4,169.1079 889.35,183.4379 871,198.2979 C830.69,230.9379 789.56,275.3879 766.26,301.8379 " fill="none" id="CreditConveyor-CreditService" style="stroke:#000000;stroke-width:1.0;"/></g><!--MD5=[d9f2acb44c601bf9f8afdc48413fe210]
link ScoringSystem to CreditService--><g id="link_ScoringSystem_CreditService"><path d="M747,158.1579 C747,194.5379 747,266.0879 747,302.2579 " fill="none" id="ScoringSystem-CreditService" style="stroke:#000000;stroke-width:1.0;"/></g><!--MD5=[5336a23001009d38cf9f547ac4f33767]
link Manual_Rates to PricingMgmt--><g id="link_Manual_Rates_PricingMgmt"><path d="M487.23,166.5079 C483.8,204.5779 478.03,268.5579 475,302.1579 " fill="none" id="Manual_Rates-PricingMgmt" style="stroke:#000000;stroke-width:1.0;"/></g><!--MD5=[d64b7765062de93a3cc3702605bdbd31]
link SMS_Gateway to CustomerComms--><g id="link_SMS_Gateway_CustomerComms"><path d="M249.09,158.1579 C231.33,194.5379 196.41,266.0879 178.76,302.2579 " fill="none" id="SMS_Gateway-CustomerComms" style="stroke:#000000;stroke-width:1.0;"/></g><!--MD5=[f3b6c7f6ddfaa109f48f11d45caf83ea]
link BKI to CreditService--><g id="link_BKI_CreditService"><path d="M2036.5,157.9379 C2022.61,170.0179 2003.72,183.8079 1984,190.2979 C1954.63,199.9579 899.47,186.2479 871,198.2979 C820.69,219.5879 780.39,272.1879 760.51,302.2679 " fill="none" id="BKI-CreditService" style="stroke:#000000;stroke-width:1.0;"/></g><!--MD5=[98c58cb13b6c94b44596cffd432e43af]
@startuml
!theme plain
title Карта IT-ландшафта банка "Стандарт"

' Определяем бизнес-возможности (колонки)
package "Бизнес-возможности" {
  cloud "Продажи и Маркетинг" as SalesMarketing {
    cloud "Привлечение клиентов" as LeadGen
    cloud "Продажи в отделениях" as BranchSales
    cloud "Продажи в онлайн-каналах" as OnlineSales
    cloud "Продажи через кол-центр" as CCSales
  }
  cloud "Обслуживание продуктов" as ProductService {
    cloud "Управление ценообразованием" as PricingMgmt
    cloud "Обслуживание депозитов" as DepoService
    cloud "Обслуживание кредитов" as CreditService
    cloud "Управление договорами" as ContractMgmt
  }
  cloud "Коммуникации" as Communications {
      cloud "Информирование клиентов" as CustomerComms
  }
}

' Определяем IT-системы (строки)
package "IT-системы банка" {
    [Сайт] as Website
    [Интернет-банк] as IB
    [Система кол-центра] as CC_System
    [Система партнёрского КЦ] as Partner_CC_System
    [АБС] as ABS_System
    [Кредитный конвейер] as CreditConveyor
    [Система скоринга] as ScoringSystem
    [СМС-шлюз] as SMS_Gateway
    [Процесс расчета ставок (Excel)] as Manual_Rates <<Manual>>
}

package "Внешние системы" {
    [БКИ] as BKI
}


' Связи Систем и Возможностей
Website - - LeadGen
IB - - OnlineSales

CC_System - - CCSales
Partner_CC_System - - CCSales

ABS_System - - BranchSales
ABS_System - - DepoService
ABS_System - - CreditService
ABS_System - - ContractMgmt

CreditConveyor - - CreditService
ScoringSystem - - CreditService

Manual_Rates - - PricingMgmt

SMS_Gateway - - CustomerComms

BKI - - CreditService

@enduml

@startuml







<style>
  root {
    BackgroundColor white
    FontColor black
    FontName Verdana
    HyperLinkColor blue
    LineColor black
    LineThickness 1
    Margin 5
  }
  caption {
    LineThickness 0
  }
  footer {
    LineThickness 0
  }
  header {
    LineThickness 0
  }
  node {
    MaximumWidth 300
  }
  title {
    FontSize 22
    LineThickness 0
  }
</style>

skinparam ArrowLollipopColor black
skinparam BackgroundColor white
skinparam DefaultFontName Verdana
skinparam DefaultMonospacedFontName Courier
skinparam LifelineStrategy nosolid
skinparam ParticipantPadding 10
skinparam SequenceLifeLineBorderColor black
skinparam Shadowing false
skinparam UseBetaStyle true

skinparam Activity {
  BackgroundColor white
  BarColor black
  BorderColor black
  FontColor black
  FontName Verdana
}
skinparam Boundary {
  FontColor black
}
skinparam Box {
  Padding 5
}
skinparam CircledCharacter {
  FontColor black
  FontName Courier
  Radius 9
}
skinparam Class {
  BackgroundColor white
  BorderColor black
  FontColor black
  FontName Verdana
}
skinparam ClassAttribute {
  FontColor black
  FontName Verdana
}
skinparam ClassStereotype {
  FontColor black
  FontName Verdana
}
skinparam Footer {
  FontColor black
  FontName Verdana
}
skinparam Header {
  FontColor black
  FontName Verdana
}
skinparam Hyperlink {
  Color blue
}
skinparam IconPackage {
  Color black
  BackgroundColor white
}
skinparam IconPrivate {
  Color black
  BackgroundColor white
}
skinparam IconProtected {
  Color black
  BackgroundColor white
}
skinparam IconPublic {
  Color black
  BackgroundColor white
}
skinparam Note {
  FontColor black
  FontName Verdana
}
skinparam Object {
  BorderColor black
}
skinparam Package {
  BorderColor black
  FontColor black
  FontName Verdana
}
skinparam State {
  BackgroundColor white
  BorderColor black
}
skinparam StereotypeA {
  BackgroundColor white
  BorderColor black
}
skinparam StereotypeC {
  BackgroundColor white
  BorderColor black
}
skinparam StereotypeE {
  BackgroundColor white
  BorderColor black
}
skinparam StereotypeI {
  BackgroundColor white
  BorderColor black
}
skinparam StereotypeN {
  BackgroundColor white
  BorderColor black
}
skinparam UseCaseStereoType {
  FontColor black
  FontName Verdana
}
title Карта IT-ландшафта банка "Стандарт"

package "Бизнес-возможности" {
  cloud "Продажи и Маркетинг" as SalesMarketing {
    cloud "Привлечение клиентов" as LeadGen
    cloud "Продажи в отделениях" as BranchSales
    cloud "Продажи в онлайн-каналах" as OnlineSales
    cloud "Продажи через кол-центр" as CCSales
  }
  cloud "Обслуживание продуктов" as ProductService {
    cloud "Управление ценообразованием" as PricingMgmt
    cloud "Обслуживание депозитов" as DepoService
    cloud "Обслуживание кредитов" as CreditService
    cloud "Управление договорами" as ContractMgmt
  }
  cloud "Коммуникации" as Communications {
      cloud "Информирование клиентов" as CustomerComms
  }
}

package "IT-системы банка" {
    [Сайт] as Website
    [Интернет-банк] as IB
    [Система кол-центра] as CC_System
    [Система партнёрского КЦ] as Partner_CC_System
    [АБС] as ABS_System
    [Кредитный конвейер] as CreditConveyor
    [Система скоринга] as ScoringSystem
    [СМС-шлюз] as SMS_Gateway
    [Процесс расчета ставок (Excel)] as Manual_Rates <<Manual>>
}

package "Внешние системы" {
    [БКИ] as BKI
}


Website - - LeadGen
IB - - OnlineSales

CC_System - - CCSales
Partner_CC_System - - CCSales

ABS_System - - BranchSales
ABS_System - - DepoService
ABS_System - - CreditService
ABS_System - - ContractMgmt

CreditConveyor - - CreditService
ScoringSystem - - CreditService

Manual_Rates - - PricingMgmt

SMS_Gateway - - CustomerComms

BKI - - CreditService

@enduml

PlantUML version 1.2022.6(Tue Jun 21 17:34:49 GMT 2022)
(GPL source distribution)
Java Runtime: OpenJDK Runtime Environment
JVM: OpenJDK 64-Bit Server VM
Default Encoding: UTF-8
Language: en
Country: US
--></g></svg>