<?xml version="1.0" encoding="UTF-8" standalone="no"?><svg xmlns="http://www.w3.org/2000/svg" xmlns:xlink="http://www.w3.org/1999/xlink" contentStyleType="text/css" height="1188px" preserveAspectRatio="none" style="width:1554px;height:1188px;background:#FFFFFF;" version="1.1" viewBox="0 0 1554 1188" width="1554px" zoomAndPan="magnify"><defs/><g><rect height="26.2969" style="stroke:#00000000;stroke-width:1.0;fill:none;" width="325" x="583.5" y="15"/><text fill="#000000" font-family="sans-serif" font-size="14" font-weight="bold" lengthAdjust="spacing" textLength="315" x="588.5" y="32.9951">WBS for MVP Call Center Bets Handover</text><line style="stroke:#9A8CF0;stroke-width:1.2;" x1="108.5" x2="108.5" y1="105.9219" y2="125.9219"/><rect fill="#EDE9FE" height="33.9688" rx="6" ry="6" style="stroke:#9A8CF0;stroke-width:1.2;" width="197" x="10" y="125.9219"/><path d="M24,138.8906 C23.45,138.8906 23,139.3406 23,139.8906 L23,140.8906 L21.09,140.8906 C21.03,140.8906 21,140.9306 21,140.9806 L21,143.3906 C21,143.6706 21.22,143.8906 21.5,143.8906 L28.5,143.8906 C28.78,143.8906 29,143.6706 29,143.3906 L29,140.9806 C29,140.9206 28.96,140.8906 28.91,140.8906 L27,140.8906 L27,139.8906 C27,139.3406 26.55,138.8906 26,138.8906 L24,138.8906 M24,139.8906 L26,139.8906 L26,140.8906 L24,140.8906 L24,139.8906 M21,144.8006 L21,146.8006 C21,146.8506 21.04,146.8906 21.09,146.8906 L28.9,146.8906 C28.95,146.8906 28.99,146.8506 28.99,146.8006 L28.99,144.8006 C28.83,144.8606 28.67,144.8906 28.49,144.8906 L21.49,144.8906 C21.31,144.8906 21.15,144.8506 20.99,144.8006 " fill="#3F2B6F" style="stroke:;stroke-width:0.0;stroke-dasharray:;"/><text fill="#3F2B6F" font-family="sans-serif" font-size="12" lengthAdjust="spacing" textLength="163" x="34" y="147.0605">Implement Betting Service</text><line style="stroke:#9A8CF0;stroke-width:1.2;" x1="108.5" x2="118.5" y1="180.293" y2="180.293"/><rect fill="#F5F3FF" height="32.8047" rx="6" ry="6" style="stroke:#9A8CF0;stroke-width:1.2;" width="139.3333" x="118.5" y="163.8906"/><path d="M135.3758,176.612 L134.7433,177.272 L132.195,179.8203 L131.4525,179.1053 L130.7925,178.4453 L129.5,179.7378 L130.16,180.3978 L131.535,181.7728 L132.1675,182.4328 L132.8275,181.7728 L136.0358,178.5645 L136.6958,177.9045 L135.3758,176.612 " fill="#312E81" style="stroke:;stroke-width:0.0;stroke-dasharray:;"/><text fill="#312E81" font-family="sans-serif" font-size="11" lengthAdjust="spacing" textLength="106" x="141.8333" y="184.1011">Design the service</text><line style="stroke:#9A8CF0;stroke-width:1.2;" x1="188.1667" x2="198.1667" y1="217.0977" y2="217.0977"/><rect fill="#F5F3FF" height="32.8047" rx="6" ry="6" style="stroke:#9A8CF0;stroke-width:1.2;" width="186.3333" x="198.1667" y="200.6953"/><path d="M215.0425,213.4167 L214.41,214.0767 L211.8617,216.625 L211.1192,215.91 L210.4592,215.25 L209.1667,216.5425 L209.8267,217.2025 L211.2017,218.5775 L211.8342,219.2375 L212.4942,218.5775 L215.7025,215.3692 L216.3625,214.7092 L215.0425,213.4167 " fill="#312E81" style="stroke:;stroke-width:0.0;stroke-dasharray:;"/><text fill="#312E81" font-family="sans-serif" font-size="11" lengthAdjust="spacing" textLength="153" x="221.5" y="220.9058">Define service architecture</text><line style="stroke:#9A8CF0;stroke-width:1.2;" x1="188.1667" x2="198.1667" y1="253.9023" y2="253.9023"/><rect fill="#F5F3FF" height="32.8047" rx="6" ry="6" style="stroke:#9A8CF0;stroke-width:1.2;" width="165.3333" x="198.1667" y="237.5"/><path d="M215.0425,250.2214 L214.41,250.8814 L211.8617,253.4297 L211.1192,252.7147 L210.4592,252.0547 L209.1667,253.3472 L209.8267,254.0072 L211.2017,255.3822 L211.8342,256.0422 L212.4942,255.3822 L215.7025,252.1739 L216.3625,251.5139 L215.0425,250.2214 " fill="#312E81" style="stroke:;stroke-width:0.0;stroke-dasharray:;"/><text fill="#312E81" font-family="sans-serif" font-size="11" lengthAdjust="spacing" textLength="132" x="221.5" y="257.7104">Define API specification</text><line style="stroke:#9A8CF0;stroke-width:1.2;" x1="188.1667" x2="188.1667" y1="196.6953" y2="253.9023"/><line style="stroke:#9A8CF0;stroke-width:1.2;" x1="108.5" x2="118.5" y1="290.707" y2="290.707"/><rect fill="#F5F3FF" height="32.8047" rx="6" ry="6" style="stroke:#9A8CF0;stroke-width:1.2;" width="152.3333" x="118.5" y="274.3047"/><path d="M135.3758,287.026 L134.7433,287.686 L132.195,290.2344 L131.4525,289.5194 L130.7925,288.8594 L129.5,290.1519 L130.16,290.8119 L131.535,292.1869 L132.1675,292.8469 L132.8275,292.1869 L136.0358,288.9785 L136.6958,288.3185 L135.3758,287.026 " fill="#312E81" style="stroke:;stroke-width:0.0;stroke-dasharray:;"/><text fill="#312E81" font-family="sans-serif" font-size="11" lengthAdjust="spacing" textLength="119" x="141.8333" y="294.5151">Set up infrastructure</text><line style="stroke:#9A8CF0;stroke-width:1.2;" x1="194.6667" x2="204.6667" y1="327.5117" y2="327.5117"/><rect fill="#F5F3FF" height="32.8047" rx="6" ry="6" style="stroke:#9A8CF0;stroke-width:1.2;" width="105.3333" x="204.6667" y="311.1094"/><path d="M221.5425,323.8307 L220.91,324.4907 L218.3617,327.0391 L217.6192,326.3241 L216.9592,325.6641 L215.6667,326.9566 L216.3267,327.6166 L217.7017,328.9916 L218.3342,329.6516 L218.9942,328.9916 L222.2025,325.7832 L222.8625,325.1232 L221.5425,323.8307 " fill="#312E81" style="stroke:;stroke-width:0.0;stroke-dasharray:;"/><text fill="#312E81" font-family="sans-serif" font-size="11" lengthAdjust="spacing" textLength="72" x="228" y="331.3198">Set up CI/CD</text><line style="stroke:#9A8CF0;stroke-width:1.2;" x1="194.6667" x2="204.6667" y1="364.3164" y2="364.3164"/><rect fill="#F5F3FF" height="32.8047" rx="6" ry="6" style="stroke:#9A8CF0;stroke-width:1.2;" width="167.3333" x="204.6667" y="347.9141"/><path d="M221.5425,360.6354 L220.91,361.2954 L218.3617,363.8438 L217.6192,363.1288 L216.9592,362.4688 L215.6667,363.7613 L216.3267,364.4213 L217.7017,365.7963 L218.3342,366.4563 L218.9942,365.7963 L222.2025,362.5879 L222.8625,361.9279 L221.5425,360.6354 " fill="#312E81" style="stroke:;stroke-width:0.0;stroke-dasharray:;"/><text fill="#312E81" font-family="sans-serif" font-size="11" lengthAdjust="spacing" textLength="134" x="228" y="368.1245">Provision environments</text><line style="stroke:#9A8CF0;stroke-width:1.2;" x1="194.6667" x2="194.6667" y1="307.1094" y2="364.3164"/><line style="stroke:#9A8CF0;stroke-width:1.2;" x1="108.5" x2="118.5" y1="401.1211" y2="401.1211"/><rect fill="#F5F3FF" height="32.8047" rx="6" ry="6" style="stroke:#9A8CF0;stroke-width:1.2;" width="135.3333" x="118.5" y="384.7188"/><path d="M135.3758,397.4401 L134.7433,398.1001 L132.195,400.6484 L131.4525,399.9334 L130.7925,399.2734 L129.5,400.5659 L130.16,401.2259 L131.535,402.6009 L132.1675,403.2609 L132.8275,402.6009 L136.0358,399.3926 L136.6958,398.7326 L135.3758,397.4401 " fill="#312E81" style="stroke:;stroke-width:0.0;stroke-dasharray:;"/><text fill="#312E81" font-family="sans-serif" font-size="11" lengthAdjust="spacing" textLength="102" x="141.8333" y="404.9292">Develop database</text><line style="stroke:#9A8CF0;stroke-width:1.2;" x1="186.1667" x2="196.1667" y1="437.9258" y2="437.9258"/><rect fill="#F5F3FF" height="32.8047" rx="6" ry="6" style="stroke:#9A8CF0;stroke-width:1.2;" width="153.3333" x="196.1667" y="421.5234"/><path d="M213.0425,434.2448 L212.41,434.9048 L209.8617,437.4531 L209.1192,436.7381 L208.4592,436.0781 L207.1667,437.3706 L207.8267,438.0306 L209.2017,439.4056 L209.8342,440.0656 L210.4942,439.4056 L213.7025,436.1973 L214.3625,435.5373 L213.0425,434.2448 " fill="#312E81" style="stroke:;stroke-width:0.0;stroke-dasharray:;"/><text fill="#312E81" font-family="sans-serif" font-size="11" lengthAdjust="spacing" textLength="120" x="219.5" y="441.7339">Design table schema</text><line style="stroke:#9A8CF0;stroke-width:1.2;" x1="186.1667" x2="196.1667" y1="474.7305" y2="474.7305"/><rect fill="#F5F3FF" height="32.8047" rx="6" ry="6" style="stroke:#9A8CF0;stroke-width:1.2;" width="126.3333" x="196.1667" y="458.3281"/><path d="M213.0425,471.0495 L212.41,471.7095 L209.8617,474.2578 L209.1192,473.5428 L208.4592,472.8828 L207.1667,474.1753 L207.8267,474.8353 L209.2017,476.2103 L209.8342,476.8703 L210.4942,476.2103 L213.7025,473.002 L214.3625,472.342 L213.0425,471.0495 " fill="#312E81" style="stroke:;stroke-width:0.0;stroke-dasharray:;"/><text fill="#312E81" font-family="sans-serif" font-size="11" lengthAdjust="spacing" textLength="93" x="219.5" y="478.5386">Write migrations</text><line style="stroke:#9A8CF0;stroke-width:1.2;" x1="186.1667" x2="186.1667" y1="417.5234" y2="474.7305"/><line style="stroke:#9A8CF0;stroke-width:1.2;" x1="108.5" x2="118.5" y1="511.5352" y2="511.5352"/><rect fill="#F5F3FF" height="32.8047" rx="6" ry="6" style="stroke:#9A8CF0;stroke-width:1.2;" width="99.3333" x="118.5" y="495.1328"/><path d="M135.3758,507.8542 L134.7433,508.5142 L132.195,511.0625 L131.4525,510.3475 L130.7925,509.6875 L129.5,510.98 L130.16,511.64 L131.535,513.015 L132.1675,513.675 L132.8275,513.015 L136.0358,509.8067 L136.6958,509.1467 L135.3758,507.8542 " fill="#312E81" style="stroke:;stroke-width:0.0;stroke-dasharray:;"/><text fill="#312E81" font-family="sans-serif" font-size="11" lengthAdjust="spacing" textLength="66" x="141.8333" y="515.3433">Develop API</text><line style="stroke:#9A8CF0;stroke-width:1.2;" x1="168.1667" x2="178.1667" y1="548.3398" y2="548.3398"/><rect fill="#F5F3FF" height="32.8047" rx="6" ry="6" style="stroke:#9A8CF0;stroke-width:1.2;" width="128.3333" x="178.1667" y="531.9375"/><path d="M195.0425,544.6589 L194.41,545.3189 L191.8617,547.8672 L191.1192,547.1522 L190.4592,546.4922 L189.1667,547.7847 L189.8267,548.4447 L191.2017,549.8197 L191.8342,550.4797 L192.4942,549.8197 L195.7025,546.6114 L196.3625,545.9514 L195.0425,544.6589 " fill="#312E81" style="stroke:;stroke-width:0.0;stroke-dasharray:;"/><text fill="#312E81" font-family="sans-serif" font-size="11" lengthAdjust="spacing" textLength="95" x="201.5" y="552.1479">Implement CRUD</text><line style="stroke:#9A8CF0;stroke-width:1.2;" x1="168.1667" x2="178.1667" y1="585.1445" y2="585.1445"/><rect fill="#F5F3FF" height="32.8047" rx="6" ry="6" style="stroke:#9A8CF0;stroke-width:1.2;" width="226.3333" x="178.1667" y="568.7422"/><path d="M195.0425,581.4635 L194.41,582.1235 L191.8617,584.6719 L191.1192,583.9569 L190.4592,583.2969 L189.1667,584.5894 L189.8267,585.2494 L191.2017,586.6244 L191.8342,587.2844 L192.4942,586.6244 L195.7025,583.416 L196.3625,582.756 L195.0425,581.4635 " fill="#312E81" style="stroke:;stroke-width:0.0;stroke-dasharray:;"/><text fill="#312E81" font-family="sans-serif" font-size="11" lengthAdjust="spacing" textLength="193" x="201.5" y="588.9526">Implement bets retrieval endpoint</text><line style="stroke:#9A8CF0;stroke-width:1.2;" x1="168.1667" x2="178.1667" y1="621.9492" y2="621.9492"/><rect fill="#F5F3FF" height="32.8047" rx="6" ry="6" style="stroke:#9A8CF0;stroke-width:1.2;" width="172.3333" x="178.1667" y="605.5469"/><path d="M195.0425,618.2682 L194.41,618.9282 L191.8617,621.4766 L191.1192,620.7616 L190.4592,620.1016 L189.1667,621.3941 L189.8267,622.0541 L191.2017,623.4291 L191.8342,624.0891 L192.4942,623.4291 L195.7025,620.2207 L196.3625,619.5607 L195.0425,618.2682 " fill="#312E81" style="stroke:;stroke-width:0.0;stroke-dasharray:;"/><text fill="#312E81" font-family="sans-serif" font-size="11" lengthAdjust="spacing" textLength="139" x="201.5" y="625.7573">Configure authentication</text><line style="stroke:#9A8CF0;stroke-width:1.2;" x1="168.1667" x2="168.1667" y1="527.9375" y2="621.9492"/><line style="stroke:#9A8CF0;stroke-width:1.2;" x1="108.5" x2="118.5" y1="658.7539" y2="658.7539"/><rect fill="#F5F3FF" height="32.8047" rx="6" ry="6" style="stroke:#9A8CF0;stroke-width:1.2;" width="93.3333" x="118.5" y="642.3516"/><path d="M135.3758,655.0729 L134.7433,655.7329 L132.195,658.2813 L131.4525,657.5663 L130.7925,656.9063 L129.5,658.1988 L130.16,658.8588 L131.535,660.2338 L132.1675,660.8938 L132.8275,660.2338 L136.0358,657.0254 L136.6958,656.3654 L135.3758,655.0729 " fill="#312E81" style="stroke:;stroke-width:0.0;stroke-dasharray:;"/><text fill="#312E81" font-family="sans-serif" font-size="11" lengthAdjust="spacing" textLength="60" x="141.8333" y="662.562">Develop UI</text><line style="stroke:#9A8CF0;stroke-width:1.2;" x1="165.1667" x2="175.1667" y1="695.5586" y2="695.5586"/><rect fill="#F5F3FF" height="32.8047" rx="6" ry="6" style="stroke:#9A8CF0;stroke-width:1.2;" width="170.3333" x="175.1667" y="679.1563"/><path d="M192.0425,691.8776 L191.41,692.5376 L188.8617,695.0859 L188.1192,694.3709 L187.4592,693.7109 L186.1667,695.0034 L186.8267,695.6634 L188.2017,697.0384 L188.8342,697.6984 L189.4942,697.0384 L192.7025,693.8301 L193.3625,693.1701 L192.0425,691.8776 " fill="#312E81" style="stroke:;stroke-width:0.0;stroke-dasharray:;"/><text fill="#312E81" font-family="sans-serif" font-size="11" lengthAdjust="spacing" textLength="137" x="198.5" y="699.3667">Implement admin forms</text><line style="stroke:#9A8CF0;stroke-width:1.2;" x1="165.1667" x2="175.1667" y1="732.3633" y2="732.3633"/><rect fill="#F5F3FF" height="32.8047" rx="6" ry="6" style="stroke:#9A8CF0;stroke-width:1.2;" width="172.3333" x="175.1667" y="715.9609"/><path d="M192.0425,728.6823 L191.41,729.3423 L188.8617,731.8906 L188.1192,731.1756 L187.4592,730.5156 L186.1667,731.8081 L186.8267,732.4681 L188.2017,733.8431 L188.8342,734.5031 L189.4942,733.8431 L192.7025,730.6348 L193.3625,729.9748 L192.0425,728.6823 " fill="#312E81" style="stroke:;stroke-width:0.0;stroke-dasharray:;"/><text fill="#312E81" font-family="sans-serif" font-size="11" lengthAdjust="spacing" textLength="139" x="198.5" y="736.1714">Configure authentication</text><line style="stroke:#9A8CF0;stroke-width:1.2;" x1="165.1667" x2="165.1667" y1="675.1563" y2="732.3633"/><line style="stroke:#9A8CF0;stroke-width:1.2;" x1="108.5" x2="118.5" y1="769.168" y2="769.168"/><rect fill="#F5F3FF" height="32.8047" rx="6" ry="6" style="stroke:#9A8CF0;stroke-width:1.2;" width="130.3333" x="118.5" y="752.7656"/><path d="M135.3758,765.487 L134.7433,766.147 L132.195,768.6953 L131.4525,767.9803 L130.7925,767.3203 L129.5,768.6128 L130.16,769.2728 L131.535,770.6478 L132.1675,771.3078 L132.8275,770.6478 L136.0358,767.4395 L136.6958,766.7795 L135.3758,765.487 " fill="#312E81" style="stroke:;stroke-width:0.0;stroke-dasharray:;"/><text fill="#312E81" font-family="sans-serif" font-size="11" lengthAdjust="spacing" textLength="97" x="141.8333" y="772.9761">Develop exporter</text><line style="stroke:#9A8CF0;stroke-width:1.2;" x1="183.6667" x2="193.6667" y1="805.9727" y2="805.9727"/><rect fill="#F5F3FF" height="32.8047" rx="6" ry="6" style="stroke:#9A8CF0;stroke-width:1.2;" width="185.3333" x="193.6667" y="789.5703"/><path d="M210.5425,802.2917 L209.91,802.9517 L207.3617,805.5 L206.6192,804.785 L205.9592,804.125 L204.6667,805.4175 L205.3267,806.0775 L206.7017,807.4525 L207.3342,808.1125 L207.9942,807.4525 L211.2025,804.2442 L211.8625,803.5842 L210.5425,802.2917 " fill="#312E81" style="stroke:;stroke-width:0.0;stroke-dasharray:;"/><text fill="#312E81" font-family="sans-serif" font-size="11" lengthAdjust="spacing" textLength="152" x="217" y="809.7808">Implement CSV generation</text><line style="stroke:#9A8CF0;stroke-width:1.2;" x1="183.6667" x2="193.6667" y1="842.7773" y2="842.7773"/><rect fill="#F5F3FF" height="32.8047" rx="6" ry="6" style="stroke:#9A8CF0;stroke-width:1.2;" width="167.3333" x="193.6667" y="826.375"/><path d="M210.5425,839.0964 L209.91,839.7564 L207.3617,842.3047 L206.6192,841.5897 L205.9592,840.9297 L204.6667,842.2222 L205.3267,842.8822 L206.7017,844.2572 L207.3342,844.9172 L207.9942,844.2572 L211.2025,841.0489 L211.8625,840.3889 L210.5425,839.0964 " fill="#312E81" style="stroke:;stroke-width:0.0;stroke-dasharray:;"/><text fill="#312E81" font-family="sans-serif" font-size="11" lengthAdjust="spacing" textLength="134" x="217" y="846.5854">Implement SFTP upload</text><line style="stroke:#9A8CF0;stroke-width:1.2;" x1="183.6667" x2="183.6667" y1="785.5703" y2="842.7773"/><line style="stroke:#9A8CF0;stroke-width:1.2;" x1="108.5" x2="118.5" y1="879.582" y2="879.582"/><rect fill="#F5F3FF" height="32.8047" rx="6" ry="6" style="stroke:#9A8CF0;stroke-width:1.2;" width="75.3333" x="118.5" y="863.1797"/><path d="M135.3758,875.901 L134.7433,876.561 L132.195,879.1094 L131.4525,878.3944 L130.7925,877.7344 L129.5,879.0269 L130.16,879.6869 L131.535,881.0619 L132.1675,881.7219 L132.8275,881.0619 L136.0358,877.8535 L136.6958,877.1935 L135.3758,875.901 " fill="#312E81" style="stroke:;stroke-width:0.0;stroke-dasharray:;"/><text fill="#312E81" font-family="sans-serif" font-size="11" lengthAdjust="spacing" textLength="42" x="141.8333" y="883.3901">Testing</text><line style="stroke:#9A8CF0;stroke-width:1.2;" x1="156.1667" x2="166.1667" y1="916.3867" y2="916.3867"/><rect fill="#F5F3FF" height="32.8047" rx="6" ry="6" style="stroke:#9A8CF0;stroke-width:1.2;" width="119.3333" x="166.1667" y="899.9844"/><path d="M183.0425,912.7057 L182.41,913.3657 L179.8617,915.9141 L179.1192,915.1991 L178.4592,914.5391 L177.1667,915.8316 L177.8267,916.4916 L179.2017,917.8666 L179.8342,918.5266 L180.4942,917.8666 L183.7025,914.6582 L184.3625,913.9982 L183.0425,912.7057 " fill="#312E81" style="stroke:;stroke-width:0.0;stroke-dasharray:;"/><text fill="#312E81" font-family="sans-serif" font-size="11" lengthAdjust="spacing" textLength="86" x="189.5" y="920.1948">Write unit tests</text><line style="stroke:#9A8CF0;stroke-width:1.2;" x1="156.1667" x2="166.1667" y1="953.1914" y2="953.1914"/><rect fill="#F5F3FF" height="32.8047" rx="6" ry="6" style="stroke:#9A8CF0;stroke-width:1.2;" width="159.3333" x="166.1667" y="936.7891"/><path d="M183.0425,949.5104 L182.41,950.1704 L179.8617,952.7188 L179.1192,952.0038 L178.4592,951.3438 L177.1667,952.6363 L177.8267,953.2963 L179.2017,954.6713 L179.8342,955.3313 L180.4942,954.6713 L183.7025,951.4629 L184.3625,950.8029 L183.0425,949.5104 " fill="#312E81" style="stroke:;stroke-width:0.0;stroke-dasharray:;"/><text fill="#312E81" font-family="sans-serif" font-size="11" lengthAdjust="spacing" textLength="126" x="189.5" y="956.9995">Write integration tests</text><line style="stroke:#9A8CF0;stroke-width:1.2;" x1="156.1667" x2="156.1667" y1="895.9844" y2="953.1914"/><line style="stroke:#9A8CF0;stroke-width:1.2;" x1="108.5" x2="118.5" y1="989.9961" y2="989.9961"/><rect fill="#F5F3FF" height="32.8047" rx="6" ry="6" style="stroke:#9A8CF0;stroke-width:1.2;" width="166.3333" x="118.5" y="973.5938"/><path d="M135.3758,986.3151 L134.7433,986.9751 L132.195,989.5234 L131.4525,988.8084 L130.7925,988.1484 L129.5,989.4409 L130.16,990.1009 L131.535,991.4759 L132.1675,992.1359 L132.8275,991.4759 L136.0358,988.2676 L136.6958,987.6076 L135.3758,986.3151 " fill="#312E81" style="stroke:;stroke-width:0.0;stroke-dasharray:;"/><text fill="#312E81" font-family="sans-serif" font-size="11" lengthAdjust="spacing" textLength="133" x="141.8333" y="993.8042">Prepare documentation</text><line style="stroke:#9A8CF0;stroke-width:1.2;" x1="201.6667" x2="211.6667" y1="1026.8008" y2="1026.8008"/><rect fill="#F5F3FF" height="32.8047" rx="6" ry="6" style="stroke:#9A8CF0;stroke-width:1.2;" width="138.3333" x="211.6667" y="1010.3984"/><path d="M228.5425,1023.1198 L227.91,1023.7798 L225.3617,1026.3281 L224.6192,1025.6131 L223.9592,1024.9531 L222.6667,1026.2456 L223.3267,1026.9056 L224.7017,1028.2806 L225.3342,1028.9406 L225.9942,1028.2806 L229.2025,1025.0723 L229.8625,1024.4123 L228.5425,1023.1198 " fill="#312E81" style="stroke:;stroke-width:0.0;stroke-dasharray:;"/><text fill="#312E81" font-family="sans-serif" font-size="11" lengthAdjust="spacing" textLength="105" x="235" y="1030.6089">Generate API docs</text><line style="stroke:#9A8CF0;stroke-width:1.2;" x1="201.6667" x2="211.6667" y1="1063.6055" y2="1063.6055"/><rect fill="#F5F3FF" height="32.8047" rx="6" ry="6" style="stroke:#9A8CF0;stroke-width:1.2;" width="166.3333" x="211.6667" y="1047.2031"/><path d="M228.5425,1059.9245 L227.91,1060.5845 L225.3617,1063.1328 L224.6192,1062.4178 L223.9592,1061.7578 L222.6667,1063.0503 L223.3267,1063.7103 L224.7017,1065.0853 L225.3342,1065.7453 L225.9942,1065.0853 L229.2025,1061.877 L229.8625,1061.217 L228.5425,1059.9245 " fill="#312E81" style="stroke:;stroke-width:0.0;stroke-dasharray:;"/><text fill="#312E81" font-family="sans-serif" font-size="11" lengthAdjust="spacing" textLength="133" x="235" y="1067.4136">Write deployment guide</text><line style="stroke:#9A8CF0;stroke-width:1.2;" x1="201.6667" x2="201.6667" y1="1006.3984" y2="1063.6055"/><line style="stroke:#9A8CF0;stroke-width:1.2;" x1="108.5" x2="108.5" y1="159.8906" y2="989.9961"/><line style="stroke:#9A8CF0;stroke-width:1.2;" x1="531" x2="531" y1="105.9219" y2="125.9219"/><rect fill="#EDE9FE" height="33.9688" rx="6" ry="6" style="stroke:#9A8CF0;stroke-width:1.2;" width="213" x="424.5" y="125.9219"/><path d="M438.5,138.8906 C437.95,138.8906 437.5,139.3406 437.5,139.8906 L437.5,140.8906 L435.59,140.8906 C435.53,140.8906 435.5,140.9306 435.5,140.9806 L435.5,143.3906 C435.5,143.6706 435.72,143.8906 436,143.8906 L443,143.8906 C443.28,143.8906 443.5,143.6706 443.5,143.3906 L443.5,140.9806 C443.5,140.9206 443.46,140.8906 443.41,140.8906 L441.5,140.8906 L441.5,139.8906 C441.5,139.3406 441.05,138.8906 440.5,138.8906 L438.5,138.8906 M438.5,139.8906 L440.5,139.8906 L440.5,140.8906 L438.5,140.8906 L438.5,139.8906 M435.5,144.8006 L435.5,146.8006 C435.5,146.8506 435.54,146.8906 435.59,146.8906 L443.4,146.8906 C443.45,146.8906 443.49,146.8506 443.49,146.8006 L443.49,144.8006 C443.33,144.8606 443.17,144.8906 442.99,144.8906 L435.99,144.8906 C435.81,144.8906 435.65,144.8506 435.49,144.8006 " fill="#3F2B6F" style="stroke:;stroke-width:0.0;stroke-dasharray:;"/><text fill="#3F2B6F" font-family="sans-serif" font-size="12" lengthAdjust="spacing" textLength="179" x="448.5" y="147.0605">Integrate Call Center System</text><line style="stroke:#9A8CF0;stroke-width:1.2;" x1="531" x2="541" y1="180.293" y2="180.293"/><rect fill="#F5F3FF" height="32.8047" rx="6" ry="6" style="stroke:#9A8CF0;stroke-width:1.2;" width="80.3333" x="541" y="163.8906"/><path d="M557.8758,176.612 L557.2433,177.272 L554.695,179.8203 L553.9525,179.1053 L553.2925,178.4453 L552,179.7378 L552.66,180.3978 L554.035,181.7728 L554.6675,182.4328 L555.3275,181.7728 L558.5358,178.5645 L559.1958,177.9045 L557.8758,176.612 " fill="#312E81" style="stroke:;stroke-width:0.0;stroke-dasharray:;"/><text fill="#312E81" font-family="sans-serif" font-size="11" lengthAdjust="spacing" textLength="47" x="564.3333" y="184.1011">Analysis</text><line style="stroke:#9A8CF0;stroke-width:1.2;" x1="581.1667" x2="591.1667" y1="217.0977" y2="217.0977"/><rect fill="#F5F3FF" height="32.8047" rx="6" ry="6" style="stroke:#9A8CF0;stroke-width:1.2;" width="137.3333" x="591.1667" y="200.6953"/><path d="M608.0425,213.4167 L607.41,214.0767 L604.8617,216.625 L604.1192,215.91 L603.4592,215.25 L602.1667,216.5425 L602.8267,217.2025 L604.2017,218.5775 L604.8342,219.2375 L605.4942,218.5775 L608.7025,215.3692 L609.3625,214.7092 L608.0425,213.4167 " fill="#312E81" style="stroke:;stroke-width:0.0;stroke-dasharray:;"/><text fill="#312E81" font-family="sans-serif" font-size="11" lengthAdjust="spacing" textLength="104" x="614.5" y="220.9058">Agree API contract</text><line style="stroke:#9A8CF0;stroke-width:1.2;" x1="581.1667" x2="591.1667" y1="253.9023" y2="253.9023"/><rect fill="#F5F3FF" height="32.8047" rx="6" ry="6" style="stroke:#9A8CF0;stroke-width:1.2;" width="161.3333" x="591.1667" y="237.5"/><path d="M608.0425,250.2214 L607.41,250.8814 L604.8617,253.4297 L604.1192,252.7147 L603.4592,252.0547 L602.1667,253.3472 L602.8267,254.0072 L604.2017,255.3822 L604.8342,256.0422 L605.4942,255.3822 L608.7025,252.1739 L609.3625,251.5139 L608.0425,250.2214 " fill="#312E81" style="stroke:;stroke-width:0.0;stroke-dasharray:;"/><text fill="#312E81" font-family="sans-serif" font-size="11" lengthAdjust="spacing" textLength="128" x="614.5" y="257.7104">Plan required changes</text><line style="stroke:#9A8CF0;stroke-width:1.2;" x1="581.1667" x2="581.1667" y1="196.6953" y2="253.9023"/><line style="stroke:#9A8CF0;stroke-width:1.2;" x1="531" x2="541" y1="290.707" y2="290.707"/><rect fill="#F5F3FF" height="32.8047" rx="6" ry="6" style="stroke:#9A8CF0;stroke-width:1.2;" width="88.3333" x="541" y="274.3047"/><path d="M557.8758,287.026 L557.2433,287.686 L554.695,290.2344 L553.9525,289.5194 L553.2925,288.8594 L552,290.1519 L552.66,290.8119 L554.035,292.1869 L554.6675,292.8469 L555.3275,292.1869 L558.5358,288.9785 L559.1958,288.3185 L557.8758,287.026 " fill="#312E81" style="stroke:;stroke-width:0.0;stroke-dasharray:;"/><text fill="#312E81" font-family="sans-serif" font-size="11" lengthAdjust="spacing" textLength="55" x="564.3333" y="294.5151">Update UI</text><line style="stroke:#9A8CF0;stroke-width:1.2;" x1="585.1667" x2="595.1667" y1="327.5117" y2="327.5117"/><rect fill="#F5F3FF" height="32.8047" rx="6" ry="6" style="stroke:#9A8CF0;stroke-width:1.2;" width="166.3333" x="595.1667" y="311.1094"/><path d="M612.0425,323.8307 L611.41,324.4907 L608.8617,327.0391 L608.1192,326.3241 L607.4592,325.6641 L606.1667,326.9566 L606.8267,327.6166 L608.2017,328.9916 L608.8342,329.6516 L609.4942,328.9916 L612.7025,325.7832 L613.3625,325.1232 L612.0425,323.8307 " fill="#312E81" style="stroke:;stroke-width:0.0;stroke-dasharray:;"/><text fill="#312E81" font-family="sans-serif" font-size="11" lengthAdjust="spacing" textLength="133" x="618.5" y="331.3198">Implement bets display</text><line style="stroke:#9A8CF0;stroke-width:1.2;" x1="585.1667" x2="585.1667" y1="307.1094" y2="327.5117"/><line style="stroke:#9A8CF0;stroke-width:1.2;" x1="531" x2="541" y1="364.3164" y2="364.3164"/><rect fill="#F5F3FF" height="32.8047" rx="6" ry="6" style="stroke:#9A8CF0;stroke-width:1.2;" width="148.3333" x="541" y="347.9141"/><path d="M557.8758,360.6354 L557.2433,361.2954 L554.695,363.8438 L553.9525,363.1288 L553.2925,362.4688 L552,363.7613 L552.66,364.4213 L554.035,365.7963 L554.6675,366.4563 L555.3275,365.7963 L558.5358,362.5879 L559.1958,361.9279 L557.8758,360.6354 " fill="#312E81" style="stroke:;stroke-width:0.0;stroke-dasharray:;"/><text fill="#312E81" font-family="sans-serif" font-size="11" lengthAdjust="spacing" textLength="115" x="564.3333" y="368.1245">Implement API client</text><line style="stroke:#9A8CF0;stroke-width:1.2;" x1="615.1667" x2="625.1667" y1="401.1211" y2="401.1211"/><rect fill="#F5F3FF" height="32.8047" rx="6" ry="6" style="stroke:#9A8CF0;stroke-width:1.2;" width="169.3333" x="625.1667" y="384.7188"/><path d="M642.0425,397.4401 L641.41,398.1001 L638.8617,400.6484 L638.1192,399.9334 L637.4592,399.2734 L636.1667,400.5659 L636.8267,401.2259 L638.2017,402.6009 L638.8342,403.2609 L639.4942,402.6009 L642.7025,399.3926 L643.3625,398.7326 L642.0425,397.4401 " fill="#312E81" style="stroke:;stroke-width:0.0;stroke-dasharray:;"/><text fill="#312E81" font-family="sans-serif" font-size="11" lengthAdjust="spacing" textLength="136" x="648.5" y="404.9292">Implement endpoint call</text><line style="stroke:#9A8CF0;stroke-width:1.2;" x1="615.1667" x2="615.1667" y1="380.7188" y2="401.1211"/><line style="stroke:#9A8CF0;stroke-width:1.2;" x1="531" x2="541" y1="437.9258" y2="437.9258"/><rect fill="#F5F3FF" height="32.8047" rx="6" ry="6" style="stroke:#9A8CF0;stroke-width:1.2;" width="75.3333" x="541" y="421.5234"/><path d="M557.8758,434.2448 L557.2433,434.9048 L554.695,437.4531 L553.9525,436.7381 L553.2925,436.0781 L552,437.3706 L552.66,438.0306 L554.035,439.4056 L554.6675,440.0656 L555.3275,439.4056 L558.5358,436.1973 L559.1958,435.5373 L557.8758,434.2448 " fill="#312E81" style="stroke:;stroke-width:0.0;stroke-dasharray:;"/><text fill="#312E81" font-family="sans-serif" font-size="11" lengthAdjust="spacing" textLength="42" x="564.3333" y="441.7339">Testing</text><line style="stroke:#9A8CF0;stroke-width:1.2;" x1="578.6667" x2="588.6667" y1="474.7305" y2="474.7305"/><rect fill="#F5F3FF" height="32.8047" rx="6" ry="6" style="stroke:#9A8CF0;stroke-width:1.2;" width="123.3333" x="588.6667" y="458.3281"/><path d="M605.5425,471.0495 L604.91,471.7095 L602.3617,474.2578 L601.6192,473.5428 L600.9592,472.8828 L599.6667,474.1753 L600.3267,474.8353 L601.7017,476.2103 L602.3342,476.8703 L602.9942,476.2103 L606.2025,473.002 L606.8625,472.342 L605.5425,471.0495 " fill="#312E81" style="stroke:;stroke-width:0.0;stroke-dasharray:;"/><text fill="#312E81" font-family="sans-serif" font-size="11" lengthAdjust="spacing" textLength="90" x="612" y="478.5386">Test on Staging</text><line style="stroke:#9A8CF0;stroke-width:1.2;" x1="578.6667" x2="578.6667" y1="454.3281" y2="474.7305"/><line style="stroke:#9A8CF0;stroke-width:1.2;" x1="531" x2="531" y1="159.8906" y2="437.9258"/><line style="stroke:#9A8CF0;stroke-width:1.2;" x1="910.5" x2="910.5" y1="105.9219" y2="125.9219"/><rect fill="#EDE9FE" height="33.9688" rx="6" ry="6" style="stroke:#9A8CF0;stroke-width:1.2;" width="192" x="814.5" y="125.9219"/><path d="M828.5,138.8906 C827.95,138.8906 827.5,139.3406 827.5,139.8906 L827.5,140.8906 L825.59,140.8906 C825.53,140.8906 825.5,140.9306 825.5,140.9806 L825.5,143.3906 C825.5,143.6706 825.72,143.8906 826,143.8906 L833,143.8906 C833.28,143.8906 833.5,143.6706 833.5,143.3906 L833.5,140.9806 C833.5,140.9206 833.46,140.8906 833.41,140.8906 L831.5,140.8906 L831.5,139.8906 C831.5,139.3406 831.05,138.8906 830.5,138.8906 L828.5,138.8906 M828.5,139.8906 L830.5,139.8906 L830.5,140.8906 L828.5,140.8906 L828.5,139.8906 M825.5,144.8006 L825.5,146.8006 C825.5,146.8506 825.54,146.8906 825.59,146.8906 L833.4,146.8906 C833.45,146.8906 833.49,146.8506 833.49,146.8006 L833.49,144.8006 C833.33,144.8606 833.17,144.8906 832.99,144.8906 L825.99,144.8906 C825.81,144.8906 825.65,144.8506 825.49,144.8006 " fill="#3F2B6F" style="stroke:;stroke-width:0.0;stroke-dasharray:;"/><text fill="#3F2B6F" font-family="sans-serif" font-size="12" lengthAdjust="spacing" textLength="158" x="838.5" y="147.0605">Integrate Partner System</text><line style="stroke:#9A8CF0;stroke-width:1.2;" x1="910.5" x2="920.5" y1="180.293" y2="180.293"/><rect fill="#F5F3FF" height="32.8047" rx="6" ry="6" style="stroke:#9A8CF0;stroke-width:1.2;" width="120.3333" x="920.5" y="163.8906"/><path d="M937.3758,176.612 L936.7433,177.272 L934.195,179.8203 L933.4525,179.1053 L932.7925,178.4453 L931.5,179.7378 L932.16,180.3978 L933.535,181.7728 L934.1675,182.4328 L934.8275,181.7728 L938.0358,178.5645 L938.6958,177.9045 L937.3758,176.612 " fill="#312E81" style="stroke:;stroke-width:0.0;stroke-dasharray:;"/><text fill="#312E81" font-family="sans-serif" font-size="11" lengthAdjust="spacing" textLength="87" x="943.8333" y="184.1011">Configure SFTP</text><line style="stroke:#9A8CF0;stroke-width:1.2;" x1="980.6667" x2="990.6667" y1="217.0977" y2="217.0977"/><rect fill="#F5F3FF" height="32.8047" rx="6" ry="6" style="stroke:#9A8CF0;stroke-width:1.2;" width="117.3333" x="990.6667" y="200.6953"/><path d="M1007.5425,213.4167 L1006.91,214.0767 L1004.3617,216.625 L1003.6192,215.91 L1002.9592,215.25 L1001.6667,216.5425 L1002.3267,217.2025 L1003.7017,218.5775 L1004.3342,219.2375 L1004.9942,218.5775 L1008.2025,215.3692 L1008.8625,214.7092 L1007.5425,213.4167 " fill="#312E81" style="stroke:;stroke-width:0.0;stroke-dasharray:;"/><text fill="#312E81" font-family="sans-serif" font-size="11" lengthAdjust="spacing" textLength="84" x="1014" y="220.9058">Exchange keys</text><line style="stroke:#9A8CF0;stroke-width:1.2;" x1="980.6667" x2="980.6667" y1="196.6953" y2="217.0977"/><line style="stroke:#9A8CF0;stroke-width:1.2;" x1="910.5" x2="920.5" y1="253.9023" y2="253.9023"/><rect fill="#F5F3FF" height="32.8047" rx="6" ry="6" style="stroke:#9A8CF0;stroke-width:1.2;" width="134.3333" x="920.5" y="237.5"/><path d="M937.3758,250.2214 L936.7433,250.8814 L934.195,253.4297 L933.4525,252.7147 L932.7925,252.0547 L931.5,253.3472 L932.16,254.0072 L933.535,255.3822 L934.1675,256.0422 L934.8275,255.3822 L938.0358,252.1739 L938.6958,251.5139 L937.3758,250.2214 " fill="#312E81" style="stroke:;stroke-width:0.0;stroke-dasharray:;"/><text fill="#312E81" font-family="sans-serif" font-size="11" lengthAdjust="spacing" textLength="101" x="943.8333" y="257.7104">Implement import</text><line style="stroke:#9A8CF0;stroke-width:1.2;" x1="987.6667" x2="997.6667" y1="290.707" y2="290.707"/><rect fill="#F5F3FF" height="32.8047" rx="6" ry="6" style="stroke:#9A8CF0;stroke-width:1.2;" width="167.3333" x="997.6667" y="274.3047"/><path d="M1014.5425,287.026 L1013.91,287.686 L1011.3617,290.2344 L1010.6192,289.5194 L1009.9592,288.8594 L1008.6667,290.1519 L1009.3267,290.8119 L1010.7017,292.1869 L1011.3342,292.8469 L1011.9942,292.1869 L1015.2025,288.9785 L1015.8625,288.3185 L1014.5425,287.026 " fill="#312E81" style="stroke:;stroke-width:0.0;stroke-dasharray:;"/><text fill="#312E81" font-family="sans-serif" font-size="11" lengthAdjust="spacing" textLength="134" x="1021" y="294.5151">Implement CSV parsing</text><line style="stroke:#9A8CF0;stroke-width:1.2;" x1="987.6667" x2="997.6667" y1="327.5117" y2="327.5117"/><rect fill="#F5F3FF" height="32.8047" rx="6" ry="6" style="stroke:#9A8CF0;stroke-width:1.2;" width="167.3333" x="997.6667" y="311.1094"/><path d="M1014.5425,323.8307 L1013.91,324.4907 L1011.3617,327.0391 L1010.6192,326.3241 L1009.9592,325.6641 L1008.6667,326.9566 L1009.3267,327.6166 L1010.7017,328.9916 L1011.3342,329.6516 L1011.9942,328.9916 L1015.2025,325.7832 L1015.8625,325.1232 L1014.5425,323.8307 " fill="#312E81" style="stroke:;stroke-width:0.0;stroke-dasharray:;"/><text fill="#312E81" font-family="sans-serif" font-size="11" lengthAdjust="spacing" textLength="134" x="1021" y="331.3198">Implement data loading</text><line style="stroke:#9A8CF0;stroke-width:1.2;" x1="987.6667" x2="987.6667" y1="270.3047" y2="327.5117"/><line style="stroke:#9A8CF0;stroke-width:1.2;" x1="910.5" x2="920.5" y1="364.3164" y2="364.3164"/><rect fill="#F5F3FF" height="32.8047" rx="6" ry="6" style="stroke:#9A8CF0;stroke-width:1.2;" width="75.3333" x="920.5" y="347.9141"/><path d="M937.3758,360.6354 L936.7433,361.2954 L934.195,363.8438 L933.4525,363.1288 L932.7925,362.4688 L931.5,363.7613 L932.16,364.4213 L933.535,365.7963 L934.1675,366.4563 L934.8275,365.7963 L938.0358,362.5879 L938.6958,361.9279 L937.3758,360.6354 " fill="#312E81" style="stroke:;stroke-width:0.0;stroke-dasharray:;"/><text fill="#312E81" font-family="sans-serif" font-size="11" lengthAdjust="spacing" textLength="42" x="943.8333" y="368.1245">Testing</text><line style="stroke:#9A8CF0;stroke-width:1.2;" x1="958.1667" x2="968.1667" y1="401.1211" y2="401.1211"/><rect fill="#F5F3FF" height="32.8047" rx="6" ry="6" style="stroke:#9A8CF0;stroke-width:1.2;" width="119.3333" x="968.1667" y="384.7188"/><path d="M985.0425,397.4401 L984.41,398.1001 L981.8617,400.6484 L981.1192,399.9334 L980.4592,399.2734 L979.1667,400.5659 L979.8267,401.2259 L981.2017,402.6009 L981.8342,403.2609 L982.4942,402.6009 L985.7025,399.3926 L986.3625,398.7326 L985.0425,397.4401 " fill="#312E81" style="stroke:;stroke-width:0.0;stroke-dasharray:;"/><text fill="#312E81" font-family="sans-serif" font-size="11" lengthAdjust="spacing" textLength="86" x="991.5" y="404.9292">Run test cycles</text><line style="stroke:#9A8CF0;stroke-width:1.2;" x1="958.1667" x2="958.1667" y1="380.7188" y2="401.1211"/><line style="stroke:#9A8CF0;stroke-width:1.2;" x1="910.5" x2="910.5" y1="159.8906" y2="364.3164"/><line style="stroke:#9A8CF0;stroke-width:1.2;" x1="1272" x2="1272" y1="105.9219" y2="125.9219"/><rect fill="#EDE9FE" height="33.9688" rx="6" ry="6" style="stroke:#9A8CF0;stroke-width:1.2;" width="174" x="1185" y="125.9219"/><path d="M1199,138.8906 C1198.45,138.8906 1198,139.3406 1198,139.8906 L1198,140.8906 L1196.09,140.8906 C1196.03,140.8906 1196,140.9306 1196,140.9806 L1196,143.3906 C1196,143.6706 1196.22,143.8906 1196.5,143.8906 L1203.5,143.8906 C1203.78,143.8906 1204,143.6706 1204,143.3906 L1204,140.9806 C1204,140.9206 1203.96,140.8906 1203.91,140.8906 L1202,140.8906 L1202,139.8906 C1202,139.3406 1201.55,138.8906 1201,138.8906 L1199,138.8906 M1199,139.8906 L1201,139.8906 L1201,140.8906 L1199,140.8906 L1199,139.8906 M1196,144.8006 L1196,146.8006 C1196,146.8506 1196.04,146.8906 1196.09,146.8906 L1203.9,146.8906 C1203.95,146.8906 1203.99,146.8506 1203.99,146.8006 L1203.99,144.8006 C1203.83,144.8606 1203.67,144.8906 1203.49,144.8906 L1196.49,144.8906 C1196.31,144.8906 1196.15,144.8506 1195.99,144.8006 " fill="#3F2B6F" style="stroke:;stroke-width:0.0;stroke-dasharray:;"/><text fill="#3F2B6F" font-family="sans-serif" font-size="12" lengthAdjust="spacing" textLength="140" x="1209" y="147.0605">Prepare Infrastructure</text><line style="stroke:#9A8CF0;stroke-width:1.2;" x1="1272" x2="1282" y1="180.293" y2="180.293"/><rect fill="#F5F3FF" height="32.8047" rx="6" ry="6" style="stroke:#9A8CF0;stroke-width:1.2;" width="120.3333" x="1282" y="163.8906"/><path d="M1298.8758,176.612 L1298.2433,177.272 L1295.695,179.8203 L1294.9525,179.1053 L1294.2925,178.4453 L1293,179.7378 L1293.66,180.3978 L1295.035,181.7728 L1295.6675,182.4328 L1296.3275,181.7728 L1299.5358,178.5645 L1300.1958,177.9045 L1298.8758,176.612 " fill="#312E81" style="stroke:;stroke-width:0.0;stroke-dasharray:;"/><text fill="#312E81" font-family="sans-serif" font-size="11" lengthAdjust="spacing" textLength="87" x="1305.3333" y="184.1011">Configure SFTP</text><line style="stroke:#9A8CF0;stroke-width:1.2;" x1="1342.1667" x2="1352.1667" y1="217.0977" y2="217.0977"/><rect fill="#F5F3FF" height="32.8047" rx="6" ry="6" style="stroke:#9A8CF0;stroke-width:1.2;" width="108.3333" x="1352.1667" y="200.6953"/><path d="M1369.0425,213.4167 L1368.41,214.0767 L1365.8617,216.625 L1365.1192,215.91 L1364.4592,215.25 L1363.1667,216.5425 L1363.8267,217.2025 L1365.2017,218.5775 L1365.8342,219.2375 L1366.4942,218.5775 L1369.7025,215.3692 L1370.3625,214.7092 L1369.0425,213.4167 " fill="#312E81" style="stroke:;stroke-width:0.0;stroke-dasharray:;"/><text fill="#312E81" font-family="sans-serif" font-size="11" lengthAdjust="spacing" textLength="75" x="1375.5" y="220.9058">Create users</text><line style="stroke:#9A8CF0;stroke-width:1.2;" x1="1342.1667" x2="1342.1667" y1="196.6953" y2="217.0977"/><line style="stroke:#9A8CF0;stroke-width:1.2;" x1="1272" x2="1282" y1="253.9023" y2="253.9023"/><rect fill="#F5F3FF" height="32.8047" rx="6" ry="6" style="stroke:#9A8CF0;stroke-width:1.2;" width="116.3333" x="1282" y="237.5"/><path d="M1298.8758,250.2214 L1298.2433,250.8814 L1295.695,253.4297 L1294.9525,252.7147 L1294.2925,252.0547 L1293,253.3472 L1293.66,254.0072 L1295.035,255.3822 L1295.6675,256.0422 L1296.3275,255.3822 L1299.5358,252.1739 L1300.1958,251.5139 L1298.8758,250.2214 " fill="#312E81" style="stroke:;stroke-width:0.0;stroke-dasharray:;"/><text fill="#312E81" font-family="sans-serif" font-size="11" lengthAdjust="spacing" textLength="83" x="1305.3333" y="257.7104">Deploy service</text><line style="stroke:#9A8CF0;stroke-width:1.2;" x1="1340.1667" x2="1350.1667" y1="290.707" y2="290.707"/><rect fill="#F5F3FF" height="32.8047" rx="6" ry="6" style="stroke:#9A8CF0;stroke-width:1.2;" width="150.3333" x="1350.1667" y="274.3047"/><path d="M1367.0425,287.026 L1366.41,287.686 L1363.8617,290.2344 L1363.1192,289.5194 L1362.4592,288.8594 L1361.1667,290.1519 L1361.8267,290.8119 L1363.2017,292.1869 L1363.8342,292.8469 L1364.4942,292.1869 L1367.7025,288.9785 L1368.3625,288.3185 L1367.0425,287.026 " fill="#312E81" style="stroke:;stroke-width:0.0;stroke-dasharray:;"/><text fill="#312E81" font-family="sans-serif" font-size="11" lengthAdjust="spacing" textLength="117" x="1373.5" y="294.5151">Deploy to Production</text><line style="stroke:#9A8CF0;stroke-width:1.2;" x1="1340.1667" x2="1340.1667" y1="270.3047" y2="290.707"/><line style="stroke:#9A8CF0;stroke-width:1.2;" x1="1272" x2="1282" y1="327.5117" y2="327.5117"/><rect fill="#F5F3FF" height="32.8047" rx="6" ry="6" style="stroke:#9A8CF0;stroke-width:1.2;" width="153.3333" x="1282" y="311.1094"/><path d="M1298.8758,323.8307 L1298.2433,324.4907 L1295.695,327.0391 L1294.9525,326.3241 L1294.2925,325.6641 L1293,326.9566 L1293.66,327.6166 L1295.035,328.9916 L1295.6675,329.6516 L1296.3275,328.9916 L1299.5358,325.7832 L1300.1958,325.1232 L1298.8758,323.8307 " fill="#312E81" style="stroke:;stroke-width:0.0;stroke-dasharray:;"/><text fill="#312E81" font-family="sans-serif" font-size="11" lengthAdjust="spacing" textLength="120" x="1305.3333" y="331.3198">Configure monitoring</text><line style="stroke:#9A8CF0;stroke-width:1.2;" x1="1358.6667" x2="1368.6667" y1="364.3164" y2="364.3164"/><rect fill="#F5F3FF" height="32.8047" rx="6" ry="6" style="stroke:#9A8CF0;stroke-width:1.2;" width="174.3333" x="1368.6667" y="347.9141"/><path d="M1385.5425,360.6354 L1384.91,361.2954 L1382.3617,363.8438 L1381.6192,363.1288 L1380.9592,362.4688 L1379.6667,363.7613 L1380.3267,364.4213 L1381.7017,365.7963 L1382.3342,366.4563 L1382.9942,365.7963 L1386.2025,362.5879 L1386.8625,361.9279 L1385.5425,360.6354 " fill="#312E81" style="stroke:;stroke-width:0.0;stroke-dasharray:;"/><text fill="#312E81" font-family="sans-serif" font-size="11" lengthAdjust="spacing" textLength="141" x="1392" y="368.1245">Set up metrics collection</text><line style="stroke:#9A8CF0;stroke-width:1.2;" x1="1358.6667" x2="1368.6667" y1="401.1211" y2="401.1211"/><rect fill="#F5F3FF" height="32.8047" rx="6" ry="6" style="stroke:#9A8CF0;stroke-width:1.2;" width="107.3333" x="1368.6667" y="384.7188"/><path d="M1385.5425,397.4401 L1384.91,398.1001 L1382.3617,400.6484 L1381.6192,399.9334 L1380.9592,399.2734 L1379.6667,400.5659 L1380.3267,401.2259 L1381.7017,402.6009 L1382.3342,403.2609 L1382.9942,402.6009 L1386.2025,399.3926 L1386.8625,398.7326 L1385.5425,397.4401 " fill="#312E81" style="stroke:;stroke-width:0.0;stroke-dasharray:;"/><text fill="#312E81" font-family="sans-serif" font-size="11" lengthAdjust="spacing" textLength="74" x="1392" y="404.9292">Set up alerts</text><line style="stroke:#9A8CF0;stroke-width:1.2;" x1="1358.6667" x2="1358.6667" y1="343.9141" y2="401.1211"/><line style="stroke:#9A8CF0;stroke-width:1.2;" x1="1272" x2="1272" y1="159.8906" y2="327.5117"/><line style="stroke:#9A8CF0;stroke-width:1.2;" x1="108.5" x2="1272" y1="105.9219" y2="105.9219"/><rect fill="#EDE9FE" height="38.625" rx="7" ry="7" style="stroke:#9A8CF0;stroke-width:1.2;" width="280.6667" x="549.9167" y="47.2969"/><path d="M564.9167,61.2552 C564.1833,61.2552 563.5833,61.8552 563.5833,62.5885 L563.5833,63.9219 L561.0367,63.9219 C560.9567,63.9219 560.9167,63.9752 560.9167,64.0419 L560.9167,67.2552 C560.9167,67.6285 561.21,67.9219 561.5833,67.9219 L570.9167,67.9219 C571.29,67.9219 571.5833,67.6285 571.5833,67.2552 L571.5833,64.0419 C571.5833,63.9619 571.53,63.9219 571.4633,63.9219 L568.9167,63.9219 L568.9167,62.5885 C568.9167,61.8552 568.3167,61.2552 567.5833,61.2552 L564.9167,61.2552 M564.9167,62.5885 L567.5833,62.5885 L567.5833,63.9219 L564.9167,63.9219 L564.9167,62.5885 M560.9167,69.1352 L560.9167,71.8019 C560.9167,71.8685 560.97,71.9219 561.0367,71.9219 L571.45,71.9219 C571.5167,71.9219 571.57,71.8685 571.57,71.8019 L571.57,69.1352 C571.3567,69.2152 571.1433,69.2552 570.9033,69.2552 L561.57,69.2552 C561.33,69.2552 561.1167,69.2019 560.9033,69.1352 " fill="#3F2B6F" style="stroke:;stroke-width:0.0;stroke-dasharray:;"/><text fill="#3F2B6F" font-family="sans-serif" font-size="16" lengthAdjust="spacing" textLength="243" x="577.5833" y="72.1484">MVP Call Center Bets Handover</text><line style="stroke:#9A8CF0;stroke-width:1.2;" x1="690.25" x2="690.25" y1="85.9219" y2="105.9219"/><rect fill="#DDDDDD" height="65.9063" style="stroke:#9A8CF0;stroke-width:1.2;" width="83" x="1384" y="1095.0078"/><text fill="#000000" font-family="sans-serif" font-size="12" lengthAdjust="spacing" textLength="26" x="1394" y="1118.1465">Icon</text><text fill="#000000" font-family="sans-serif" font-size="12" lengthAdjust="spacing" textLength="29" x="1420" y="1118.1465">Type</text><path d="M1398,1120.9766 C1397.45,1120.9766 1397,1121.4266 1397,1121.9766 L1397,1122.9766 L1395.09,1122.9766 C1395.03,1122.9766 1395,1123.0166 1395,1123.0666 L1395,1125.4766 C1395,1125.7566 1395.22,1125.9766 1395.5,1125.9766 L1402.5,1125.9766 C1402.78,1125.9766 1403,1125.7566 1403,1125.4766 L1403,1123.0666 C1403,1123.0066 1402.96,1122.9766 1402.91,1122.9766 L1401,1122.9766 L1401,1121.9766 C1401,1121.4266 1400.55,1120.9766 1400,1120.9766 L1398,1120.9766 M1398,1121.9766 L1400,1121.9766 L1400,1122.9766 L1398,1122.9766 L1398,1121.9766 M1395,1126.8866 L1395,1128.8866 C1395,1128.9366 1395.04,1128.9766 1395.09,1128.9766 L1402.9,1128.9766 C1402.95,1128.9766 1402.99,1128.9366 1402.99,1128.8866 L1402.99,1126.8866 C1402.83,1126.9466 1402.67,1126.9766 1402.49,1126.9766 L1395.49,1126.9766 C1395.31,1126.9766 1395.15,1126.9366 1394.99,1126.8866 " fill="#000000" style="stroke:;stroke-width:0.0;stroke-dasharray:;"/><text fill="#000000" font-family="sans-serif" font-size="12" lengthAdjust="spacing" textLength="26" x="1424" y="1132.1152">Epic</text><path d="M1401.41,1134.9453 L1400.72,1135.6653 L1397.94,1138.4453 L1397.13,1137.6653 L1396.41,1136.9453 L1395,1138.3553 L1395.72,1139.0753 L1397.22,1140.5753 L1397.91,1141.2953 L1398.63,1140.5753 L1402.13,1137.0753 L1402.85,1136.3553 L1401.41,1134.9453 " fill="#000000" style="stroke:;stroke-width:0.0;stroke-dasharray:;"/><text fill="#000000" font-family="sans-serif" font-size="12" lengthAdjust="spacing" textLength="29" x="1424" y="1146.084">Task</text><line style="stroke:#000000;stroke-width:1.0;" x1="1394" x2="1457" y1="1107.0078" y2="1107.0078"/><line style="stroke:#000000;stroke-width:1.0;" x1="1394" x2="1457" y1="1120.9766" y2="1120.9766"/><line style="stroke:#000000;stroke-width:1.0;" x1="1394" x2="1457" y1="1134.9453" y2="1134.9453"/><line style="stroke:#000000;stroke-width:1.0;" x1="1394" x2="1457" y1="1148.9141" y2="1148.9141"/><line style="stroke:#000000;stroke-width:1.0;" x1="1394" x2="1394" y1="1107.0078" y2="1148.9141"/><line style="stroke:#000000;stroke-width:1.0;" x1="1420" x2="1420" y1="1107.0078" y2="1148.9141"/><line style="stroke:#000000;stroke-width:1.0;" x1="1457" x2="1457" y1="1107.0078" y2="1148.9141"/><!--MD5=[69df112db59b09925d596dca1fcecdec]
@startwbs
title WBS for MVP Call Center Bets Handover

<style>
' Общие параметры диаграммы
wbsDiagram {
  LineColor #9A8CF0
  LineThickness 1.2

  title {
    FontSize 18
    FontColor #3B2E58
    HorizontalAlignment center
  }

  ' Базовый стиль узлов
  node {
    BackgroundColor #F3E8FF
    BorderColor #7C3AED
    FontColor #2E1065
    RoundCorner 12
    Padding 10
    Margin 4
    LineThickness 1.2
    Shadowing 0
  }

  ' Корневой узел (глубина 0) — чуть крупнее и светлее
  :depth(0) {
    BackgroundColor #EEE7FF
    BorderColor #6D28D9
    FontSize 16
    RoundCorner 14
  }

  ' Эпики — холодные пурпурные тона без красных оттенков
  .epic {
    BackgroundColor #EDE9FE
    BorderColor #7E57C2
    FontColor #3F2B6F
  }

  ' Таски — более светлые/нейтральные фиолетово‑лиловые
  .task {
    BackgroundColor #F5F3FF
    BorderColor #8B5CF6
    FontColor #312E81
  }
}
</style>

* <&briefcase> MVP Call Center Bets Handover <<epic>>

** <&briefcase> Implement Betting Service <<epic>>
*** <&check> Design the service <<task>>
**** <&check> Define service architecture <<task>>
**** <&check> Define API specification <<task>>
*** <&check> Set up infrastructure <<task>>
**** <&check> Set up CI/CD <<task>>
**** <&check> Provision environments <<task>>
*** <&check> Develop database <<task>>
**** <&check> Design table schema <<task>>
**** <&check> Write migrations <<task>>
*** <&check> Develop API <<task>>
**** <&check> Implement CRUD <<task>>
**** <&check> Implement bets retrieval endpoint <<task>>
**** <&check> Configure authentication <<task>>
*** <&check> Develop UI <<task>>
**** <&check> Implement admin forms <<task>>
**** <&check> Configure authentication <<task>>
*** <&check> Develop exporter <<task>>
**** <&check> Implement CSV generation <<task>>
**** <&check> Implement SFTP upload <<task>>
*** <&check> Testing <<task>>
**** <&check> Write unit tests <<task>>
**** <&check> Write integration tests <<task>>
*** <&check> Prepare documentation <<task>>
**** <&check> Generate API docs <<task>>
**** <&check> Write deployment guide <<task>>

** <&briefcase> Integrate Call Center System <<epic>>
*** <&check> Analysis <<task>>
**** <&check> Agree API contract <<task>>
**** <&check> Plan required changes <<task>>
*** <&check> Update UI <<task>>
**** <&check> Implement bets display <<task>>
*** <&check> Implement API client <<task>>
**** <&check> Implement endpoint call <<task>>
*** <&check> Testing <<task>>
**** <&check> Test on Staging <<task>>

** <&briefcase> Integrate Partner System <<epic>>
*** <&check> Configure SFTP <<task>>
**** <&check> Exchange keys <<task>>
*** <&check> Implement import <<task>>
**** <&check> Implement CSV parsing <<task>>
**** <&check> Implement data loading <<task>>
*** <&check> Testing <<task>>
**** <&check> Run test cycles <<task>>

** <&briefcase> Prepare Infrastructure <<epic>>
*** <&check> Configure SFTP <<task>>
**** <&check> Create users <<task>>
*** <&check> Deploy service <<task>>
**** <&check> Deploy to Production <<task>>
*** <&check> Configure monitoring <<task>>
**** <&check> Set up metrics collection <<task>>
**** <&check> Set up alerts <<task>>

legend right
|Icon|Type|
|<&briefcase>| Epic |
|<&check>| Task |
endlegend

@endwbs

@startwbs
title WBS for MVP Call Center Bets Handover

<style>
wbsDiagram {
  LineColor #9A8CF0
  LineThickness 1.2

  title {
    FontSize 18
    FontColor #3B2E58
    HorizontalAlignment center
  }

  node {
    BackgroundColor #F3E8FF
    BorderColor #7C3AED
    FontColor #2E1065
    RoundCorner 12
    Padding 10
    Margin 4
    LineThickness 1.2
    Shadowing 0
  }

  :depth(0) {
    BackgroundColor #EEE7FF
    BorderColor #6D28D9
    FontSize 16
    RoundCorner 14
  }

  .epic {
    BackgroundColor #EDE9FE
    BorderColor #7E57C2
    FontColor #3F2B6F
  }

  .task {
    BackgroundColor #F5F3FF
    BorderColor #8B5CF6
    FontColor #312E81
  }
}
</style>

* <&briefcase> MVP Call Center Bets Handover <<epic>>

** <&briefcase> Implement Betting Service <<epic>>
*** <&check> Design the service <<task>>
**** <&check> Define service architecture <<task>>
**** <&check> Define API specification <<task>>
*** <&check> Set up infrastructure <<task>>
**** <&check> Set up CI/CD <<task>>
**** <&check> Provision environments <<task>>
*** <&check> Develop database <<task>>
**** <&check> Design table schema <<task>>
**** <&check> Write migrations <<task>>
*** <&check> Develop API <<task>>
**** <&check> Implement CRUD <<task>>
**** <&check> Implement bets retrieval endpoint <<task>>
**** <&check> Configure authentication <<task>>
*** <&check> Develop UI <<task>>
**** <&check> Implement admin forms <<task>>
**** <&check> Configure authentication <<task>>
*** <&check> Develop exporter <<task>>
**** <&check> Implement CSV generation <<task>>
**** <&check> Implement SFTP upload <<task>>
*** <&check> Testing <<task>>
**** <&check> Write unit tests <<task>>
**** <&check> Write integration tests <<task>>
*** <&check> Prepare documentation <<task>>
**** <&check> Generate API docs <<task>>
**** <&check> Write deployment guide <<task>>

** <&briefcase> Integrate Call Center System <<epic>>
*** <&check> Analysis <<task>>
**** <&check> Agree API contract <<task>>
**** <&check> Plan required changes <<task>>
*** <&check> Update UI <<task>>
**** <&check> Implement bets display <<task>>
*** <&check> Implement API client <<task>>
**** <&check> Implement endpoint call <<task>>
*** <&check> Testing <<task>>
**** <&check> Test on Staging <<task>>

** <&briefcase> Integrate Partner System <<epic>>
*** <&check> Configure SFTP <<task>>
**** <&check> Exchange keys <<task>>
*** <&check> Implement import <<task>>
**** <&check> Implement CSV parsing <<task>>
**** <&check> Implement data loading <<task>>
*** <&check> Testing <<task>>
**** <&check> Run test cycles <<task>>

** <&briefcase> Prepare Infrastructure <<epic>>
*** <&check> Configure SFTP <<task>>
**** <&check> Create users <<task>>
*** <&check> Deploy service <<task>>
**** <&check> Deploy to Production <<task>>
*** <&check> Configure monitoring <<task>>
**** <&check> Set up metrics collection <<task>>
**** <&check> Set up alerts <<task>>

legend right
|Icon|Type|
|<&briefcase>| Epic |
|<&check>| Task |
endlegend

@endwbs

PlantUML version 1.2022.6(Tue Jun 21 17:34:49 GMT 2022)
(GPL source distribution)
Java Runtime: OpenJDK Runtime Environment
JVM: OpenJDK 64-Bit Server VM
Default Encoding: UTF-8
Language: en
Country: US
--></g></svg>